<?xml version="1.0" encoding="utf-8"?><svg xmlns="http://www.w3.org/2000/svg" xmlns:xlink="http://www.w3.org/1999/xlink"><symbol viewBox="0 0 6 10" id="arrow-left" xmlns="http://www.w3.org/2000/svg"><path fill-rule="evenodd" d="M6 1.17L4.86 0 0 5l4.86 5L6 8.83 2.27 5 6 1.17z"/></symbol><symbol viewBox="0 0 6 10" id="arrow-right" xmlns="http://www.w3.org/2000/svg"><path fill-rule="evenodd" d="M0 1.17L1.14 0 6 5l-4.86 5L0 8.83 3.73 5 0 1.17z"/></symbol><symbol viewBox="0 0 10 16" id="location" xmlns="http://www.w3.org/2000/svg"><path d="M5 0a5 5 0 00-5 5c0 1.81.82 4.19 2.44 7.09a41.13 41.13 0 002.43 3.82A.19.19 0 005 16a.16.16 0 00.14-.08s1.22-1.85 2.41-4.09C9.18 8.8 10 6.51 10 5a5 5 0 00-5-5zm0 7.46a2.32 2.32 0 112.31-2.32A2.31 2.31 0 015 7.46z" fill-rule="evenodd"/></symbol><symbol viewBox="0 0 14 10" id="mail" xmlns="http://www.w3.org/2000/svg"><path fill-rule="evenodd" d="M12.2 0H1.64A1.58 1.58 0 000 1.5v7A1.58 1.58 0 001.64 10H12.2a1.57 1.57 0 001.64-1.5v-7A1.57 1.57 0 0012.2 0zm-.63 1.32L6.92 5.07 2.28 1.32zm.88 7.18c0 .09-.12.18-.25.18H1.64c-.13 0-.25-.09-.25-.18V2.43l4.78 3.83a.55.55 0 00.35.12h.81a.57.57 0 00.35-.12l4.77-3.83z"/></symbol><symbol viewBox="0 0 13 13" id="phone" xmlns="http://www.w3.org/2000/svg"><path d="M12.65 9.8L10 8.24a.68.68 0 00-.37-.09.89.89 0 00-.63.22l-.78.8a.19.19 0 01-.09.05h-.27A2.5 2.5 0 017.4 9a7.33 7.33 0 01-.81-.52 9.52 9.52 0 01-1.1-1 9.3 9.3 0 01-1-1.1A5.64 5.64 0 014 5.6a2.37 2.37 0 01-.25-.66.58.58 0 010-.1.19.19 0 01.05-.09l.67-.67a.91.91 0 00.24-.44.74.74 0 00-.07-.49L3.2.36A1.2 1.2 0 003 .1a.51.51 0 00-.36-.1.61.61 0 00-.44.19L.37 2a1 1 0 00-.23.33 1.17 1.17 0 00-.14.41V3a3.15 3.15 0 00.06.68 6.19 6.19 0 00.26 1A8.48 8.48 0 00.9 6.07a11.57 11.57 0 001 1.6 15.4 15.4 0 001.61 1.82 14.22 14.22 0 002.29 1.93 11.81 11.81 0 001.92 1.05 6.58 6.58 0 001.43.44A6.31 6.31 0 0010 13h.27a1.37 1.37 0 00.39-.13 1 1 0 00.32-.23l1.83-1.82a.61.61 0 00.19-.55.69.69 0 00-.35-.47z" fill-rule="evenodd"/></symbol></svg>