<svg width="20" height="12" viewBox="0 0 20 12" fill="none" xmlns="http://www.w3.org/2000/svg">
<path fill-rule="evenodd" clip-rule="evenodd" d="M17.5403 7.6C19.0903 9.04 19.4103 9.73 19.4603 9.82C20.1003 10.88 18.7603 10.96 18.7603 10.96L16.1803 11C16.1803 11 15.6203 11.11 14.9003 10.61C13.9303 9.95 13.0003 8.22 12.3103 8.45C11.6003 8.68 11.6203 10.23 11.6203 10.23C11.6203 10.23 11.6203 10.45 11.4603 10.62C11.2803 10.81 10.9303 10.74 10.9303 10.74H9.78033C9.78033 10.74 7.23033 11 5.00033 8.67C2.55033 6.13 0.390333 1.13 0.390333 1.13C0.390333 1.13 0.270333 0.83 0.400333 0.66C0.550333 0.5 0.970333 0.5 0.970333 0.5H3.73033C3.73033 0.5 4.00033 0.5 4.17033 0.66C4.32033 0.77 4.41033 1 4.41033 1C4.41033 1 4.85033 2.11 5.45033 3.13C6.60033 5.12 7.13033 5.55 7.50033 5.34C8.10033 5.03 7.93033 2.53 7.93033 2.53C7.93033 2.53 7.94033 1.62 7.64033 1.22C7.41033 0.91 6.97033 0.81 6.78033 0.79C6.62033 0.77 6.88033 0.41 7.21033 0.24C7.71033 0 8.58033 0 9.62033 0C10.4303 0 10.6603 0.06 10.9703 0.13C11.9303 0.36 11.6003 1.25 11.6003 3.37C11.6003 4.06 11.5003 5 11.9703 5.33C12.1803 5.47 12.7003 5.35 14.0003 3.16C14.6003 2.12 15.0603 0.89 15.0603 0.89C15.0603 0.89 15.1603 0.68 15.3103 0.58C15.4703 0.5 15.6903 0.5 15.6903 0.5H18.5903C18.5903 0.5 19.4703 0.4 19.6103 0.79C19.7603 1.2 19.2803 2.17 18.0903 3.74C16.1503 6.34 15.9303 6.1 17.5403 7.6Z" fill="#FB0D1B"/>
</svg>
