<svg id="Layer_1" data-name="Layer 1" xmlns="http://www.w3.org/2000/svg" viewBox="0 0 17 22"><defs><style>.cls-1{fill:none;}</style></defs><title>Artboard 1</title><path class="cls-1" d="M10.2,1.69H1.7V20.31H15.3V6.77H10.2ZM12,16.77a1.46,1.46,0,0,0-.47-.26,2.22,2.22,0,0,1-.9-.52,1,1,0,0,1-.27-.71,1,1,0,0,1,.37-.79,1.48,1.48,0,0,1,1-.31,1.51,1.51,0,0,1,.68.16,1.06,1.06,0,0,1,.46.43,1.18,1.18,0,0,1,.16.63h-.83A.62.62,0,0,0,12,15a.43.43,0,0,0-.36-.15.48.48,0,0,0-.34.13.45.45,0,0,0-.12.33.42.42,0,0,0,.14.29,1.45,1.45,0,0,0,.48.27,2.06,2.06,0,0,1,.88.51,1.07,1.07,0,0,1,.28.77,1,1,0,0,1-.35.8,1.41,1.41,0,0,1-.93.28,1.78,1.78,0,0,1-.74-.15,1.34,1.34,0,0,1-.52-.45,1.27,1.27,0,0,1-.18-.69h.84a.76.76,0,0,0,.14.5.61.61,0,0,0,.46.15.39.39,0,0,0,.44-.44A.46.46,0,0,0,12,16.77ZM6.16,18.16l-.57-1.37L5,18.16h-1l1-2-1-1.94H5l.56,1.35.56-1.35h1l-1,1.94,1,2Zm3.71,0H7.56V14.24h.83V17.5H9.87Z"/><polygon class="cls-1" points="11.9 2.91 11.9 5.08 14.08 5.08 11.9 2.91"/><path d="M16.76,5.31,11.66.24,11.4,0H0V22H17V5.58ZM11.9,2.91l2.18,2.17H11.9Zm3.4,17.4H1.7V1.69h8.5V6.77h5.1Z"/><polygon points="7.11 14.24 6.15 14.24 5.59 15.59 5.03 14.24 4.07 14.24 5.05 16.18 4.05 18.16 5.02 18.16 5.59 16.79 6.16 18.16 7.13 18.16 6.13 16.18 7.11 14.24"/><polygon points="8.39 14.24 7.56 14.24 7.56 18.16 9.87 18.16 9.87 17.5 8.39 17.5 8.39 14.24"/><path d="M11.67,17.57a.61.61,0,0,1-.46-.15.76.76,0,0,1-.14-.5h-.84a1.27,1.27,0,0,0,.18.69,1.34,1.34,0,0,0,.52.45,1.78,1.78,0,0,0,.74.15,1.41,1.41,0,0,0,.93-.28,1,1,0,0,0,.35-.8,1.07,1.07,0,0,0-.28-.77,2.06,2.06,0,0,0-.88-.51,1.45,1.45,0,0,1-.48-.27.42.42,0,0,1-.14-.29.45.45,0,0,1,.12-.33.48.48,0,0,1,.34-.13A.43.43,0,0,1,12,15a.62.62,0,0,1,.13.42H13a1.18,1.18,0,0,0-.16-.63,1.06,1.06,0,0,0-.46-.43,1.51,1.51,0,0,0-.68-.16,1.48,1.48,0,0,0-1,.31,1,1,0,0,0-.37.79,1,1,0,0,0,.27.71,2.22,2.22,0,0,0,.9.52,1.46,1.46,0,0,1,.47.26.46.46,0,0,1,.14.36A.39.39,0,0,1,11.67,17.57Z"/></svg>