<svg xmlns="http://www.w3.org/2000/svg" viewBox="0 0 61 61">
    <path d="M49.84 0H11.22a5.09 5.09 0 0 0-5.09 5.09v50.82A5.09 5.09 0 0 0 11.22 61h38.62a5.09 5.09 0 0 0 5.09-5.09V5.09A5.09 5.09 0 0 0 49.84 0zM25.45 59H11.22a3.08 3.08 0 0 1-3.06-3.06v-9.17h3.1a10.19 10.19 0 0 0 10.12 9.15h4.07zm27.44-3.06a3.05 3.05 0 0 1-3 3.06H27.48v-4.1a1 1 0 0 0-1-1h-5.1a8.14 8.14 0 0 1-8.13-8.13 1 1 0 0 0-1-1H8.16V5.09A3.06 3.06 0 0 1 11.22 2h38.62a3.05 3.05 0 0 1 3 3.06z"/>
    <path d="M30.53 16.27a9.15 9.15 0 1 0 9.15 9.15 9.15 9.15 0 0 0-9.15-9.15zm0 16.26a7.12 7.12 0 1 1 7.12-7.11 7.12 7.12 0 0 1-7.12 7.11z"/>
    <path d="M30.53 21.35a4.07 4.07 0 1 0 4.07 4.07 4.07 4.07 0 0 0-4.07-4.07zm0 6.1a2 2 0 1 1 2-2 2 2 0 0 1-2 2z"/>
    <path d="M30.53 5.08A20.36 20.36 0 0 0 10.2 25.42a20.14 20.14 0 0 0 8.24 16.31 5.28 5.28 0 1 0 7 6.87l1.34-3.22a20 20 0 0 0 3.74.37 20.34 20.34 0 0 0 0-40.67zm-7 42.73a3.25 3.25 0 1 1-4.25-4.25l7.29-3-1.38 3.31zm7-4.09a18.53 18.53 0 0 1-2.94-.25L29.44 39a1.05 1.05 0 0 0-.22-1.12 1 1 0 0 0-.53-.27 1.09 1.09 0 0 0-.59 0l-7.45 3.19a18.27 18.27 0 1 1 9.88 2.92z"/>
</svg>