<svg width="46" height="46" viewBox="0 0 46 46" fill="none" xmlns="http://www.w3.org/2000/svg">
<path fill-rule="evenodd" clip-rule="evenodd" d="M-1.00536e-06 23C-4.50603e-07 35.6914 10.3086 46 23 46C35.6914 46 46 35.6914 46 23C46 10.3086 35.6914 -1.56012e-06 23 -1.00536e-06C10.3086 -4.50603e-07 -1.56012e-06 10.3086 -1.00536e-06 23ZM2 23C2 11.3906 11.3906 2 23 2C34.6094 2 44 11.3906 44 23C44 34.6094 34.6094 44 23 44C11.3906 44 2 34.6094 2 23ZM18 30L11 23L18 16L18 22L36 22L36 24L18 24L18 30Z" fill="black"/>
</svg>
