<svg xmlns="http://www.w3.org/2000/svg" viewBox="0 0 80 80">
  <path d="M48.73 15h-45A3.76 3.76 0 0 0 0 18.76v33.73a3.76 3.76 0 0 0 3.75 3.75h14.64l-.62 2.5h-1.53a3.76 3.76 0 0 0-3.75 3.75v1.25A1.25 1.25 0 0 0 13.74 65h25A1.25 1.25 0 0 0 40 63.74v-1.25a3.76 3.76 0 0 0-3.75-3.75h-1.54l-.62-2.5h14.64a3.76 3.76 0 0 0 3.75-3.75V18.76A3.76 3.76 0 0 0 48.73 15zM36.24 61.24a1.25 1.25 0 0 1 1.25 1.25H15a1.25 1.25 0 0 1 1.25-1.25zm-15.9-2.5l.63-2.5h10.54l.63 2.5zM50 52.49a1.25 1.25 0 0 1-1.25 1.25h-45a1.25 1.25 0 0 1-1.25-1.25v-1.25h23.77a1.25 1.25 0 1 0 1.26 1.25 1.25 1.25 0 0 0-1.26-1.25H50zm0-3.75H2.5v-30a1.25 1.25 0 0 1 1.25-1.25h45A1.25 1.25 0 0 1 50 18.76zM76.25 15h-17.5A3.76 3.76 0 0 0 55 18.76v42.48A3.75 3.75 0 0 0 58.75 65h17.5A3.76 3.76 0 0 0 80 61.24V18.76A3.76 3.76 0 0 0 76.25 15zm1.25 46.24a1.25 1.25 0 0 1-1.25 1.25h-17.5a1.25 1.25 0 0 1-1.25-1.25v-35h20zm0-37.48h-20v-1.25h20zm0-3.75h-20v-1.25a1.25 1.25 0 0 1 1.25-1.25h17.5a1.25 1.25 0 0 1 1.25 1.25z"/>
  <path d="M67.5 41.25a3.75 3.75 0 1 0-3.75-3.75 3.76 3.76 0 0 0 3.75 3.75zm0-5a1.25 1.25 0 1 1-1.25 1.25 1.25 1.25 0 0 1 1.25-1.25zM62.5 51.26h10a1.25 1.25 0 0 0 0-2.5h-10a1.25 1.25 0 0 0 0 2.5zM62.5 55h10a1.25 1.25 0 0 0 0-2.5h-10a1.25 1.25 0 0 0 0 2.5zM62.5 58.76h10a1.25 1.25 0 0 0 0-2.5h-10a1.25 1.25 0 0 0 0 2.5z"/>
</svg>