<svg id="Layer_1" data-name="Layer 1" xmlns="http://www.w3.org/2000/svg" viewBox="0 0 17 22"><defs><style>.cls-1{fill:none;}</style></defs><title>Artboard 1</title><path class="cls-1" d="M5.21,14.59H4.93V17.2h.23A.62.62,0,0,0,5.7,17a1.19,1.19,0,0,0,.17-.72v-.69a1.4,1.4,0,0,0-.15-.76A.59.59,0,0,0,5.21,14.59Z"/><path class="cls-1" d="M8.52,14.54a.49.49,0,0,0-.46.25,1.52,1.52,0,0,0-.15.76v.69a1.47,1.47,0,0,0,.15.76.49.49,0,0,0,.46.25A.47.47,0,0,0,9,17a1.44,1.44,0,0,0,.15-.74v-.68A1.74,1.74,0,0,0,9,14.8.5.5,0,0,0,8.52,14.54Z"/><path class="cls-1" d="M10.2,1.69H1.7V20.31H15.3V6.77H10.2Zm.18,13.87a1.89,1.89,0,0,1,.36-1.24,1.2,1.2,0,0,1,1-.44,1.25,1.25,0,0,1,.95.35,1.66,1.66,0,0,1,.37,1h-.78a1.1,1.1,0,0,0-.12-.57.51.51,0,0,0-.42-.16.46.46,0,0,0-.44.23,1.55,1.55,0,0,0-.14.73v.74a1.65,1.65,0,0,0,.13.8.45.45,0,0,0,.44.22.51.51,0,0,0,.42-.15,1,1,0,0,0,.13-.55h.77a1.52,1.52,0,0,1-.36,1,1.3,1.3,0,0,1-1,.35,1.2,1.2,0,0,1-1-.44,2,2,0,0,1-.35-1.25Zm-3.74.64a1.72,1.72,0,0,1-.4,1.21,1.37,1.37,0,0,1-1.09.44h-1V13.93h1a1.39,1.39,0,0,1,1.07.44,1.73,1.73,0,0,1,.4,1.19Zm3.26,0a1.83,1.83,0,0,1-.37,1.23,1.23,1.23,0,0,1-1,.44,1.28,1.28,0,0,1-1-.43,1.82,1.82,0,0,1-.37-1.22v-.67a2,2,0,0,1,.36-1.26,1.26,1.26,0,0,1,1-.45,1.27,1.27,0,0,1,1,.44,2,2,0,0,1,.37,1.25Z"/><polygon class="cls-1" points="11.9 2.91 11.9 5.08 14.08 5.08 11.9 2.91"/><path d="M16.76,5.31,11.66.24,11.4,0H0V22H17V5.58ZM11.9,2.91l2.18,2.17H11.9Zm3.4,17.4H1.7V1.69h8.5V6.77h5.1Z"/><path d="M5.17,13.93h-1v3.92h1a1.37,1.37,0,0,0,1.09-.44,1.72,1.72,0,0,0,.4-1.21v-.64a1.73,1.73,0,0,0-.4-1.19A1.39,1.39,0,0,0,5.17,13.93Zm.7,2.34A1.19,1.19,0,0,1,5.7,17a.62.62,0,0,1-.54.21H4.93V14.59h.28a.59.59,0,0,1,.51.23,1.4,1.4,0,0,1,.15.76Z"/><path d="M8.52,13.88a1.26,1.26,0,0,0-1,.45,2,2,0,0,0-.36,1.26v.67a1.82,1.82,0,0,0,.37,1.22,1.28,1.28,0,0,0,1,.43,1.23,1.23,0,0,0,1-.44,1.83,1.83,0,0,0,.37-1.23v-.67a2,2,0,0,0-.37-1.25A1.27,1.27,0,0,0,8.52,13.88Zm.6,2.39A1.44,1.44,0,0,1,9,17a.47.47,0,0,1-.45.24A.49.49,0,0,1,8.06,17a1.47,1.47,0,0,1-.15-.76v-.69a1.52,1.52,0,0,1,.15-.76.49.49,0,0,1,.46-.25A.5.5,0,0,1,9,14.8a1.74,1.74,0,0,1,.14.79Z"/><path d="M11.73,17.91a1.3,1.3,0,0,0,1-.35,1.52,1.52,0,0,0,.36-1h-.77a1,1,0,0,1-.13.55.51.51,0,0,1-.42.15.45.45,0,0,1-.44-.22,1.65,1.65,0,0,1-.13-.8v-.74a1.55,1.55,0,0,1,.14-.73.46.46,0,0,1,.44-.23.51.51,0,0,1,.42.16,1.1,1.1,0,0,1,.12.57h.78a1.66,1.66,0,0,0-.37-1,1.25,1.25,0,0,0-.95-.35,1.2,1.2,0,0,0-1,.44,1.89,1.89,0,0,0-.36,1.24v.66a2,2,0,0,0,.35,1.25A1.2,1.2,0,0,0,11.73,17.91Z"/></svg>