<svg width="18" height="18" viewBox="0 0 18 18" fill="none" xmlns="http://www.w3.org/2000/svg">
<path fill-rule="evenodd" clip-rule="evenodd" d="M5.22024 0H12.7802C15.6602 0 18.0002 2.34 18.0002 5.22V12.78C18.0002 15.66 15.6602 18 12.7802 18H5.22024C2.34024 18 0.000244141 15.66 0.000244141 12.78V5.22C0.000244141 2.34 2.34024 0 5.22024 0ZM5.04024 1.8C3.24924 1.8 1.80024 3.249 1.80024 5.04V12.96C1.80024 14.751 3.24924 16.2 5.04024 16.2H12.9602C14.7512 16.2 16.2002 14.751 16.2002 12.96V5.04C16.2002 3.249 14.7512 1.8 12.9602 1.8H5.04024ZM14.8502 4.275C14.8502 3.654 14.3462 3.15 13.7252 3.15C13.1042 3.15 12.6002 3.654 12.6002 4.275C12.6002 4.896 13.1042 5.4 13.7252 5.4C14.3462 5.4 14.8502 4.896 14.8502 4.275ZM9.00024 4.5C11.4842 4.5 13.5002 6.516 13.5002 9C13.5002 11.484 11.4842 13.5 9.00024 13.5C6.51624 13.5 4.50024 11.484 4.50024 9C4.50024 6.516 6.51624 4.5 9.00024 4.5ZM6.30024 9C6.30024 7.506 7.50624 6.3 9.00024 6.3C10.4942 6.3 11.7002 7.506 11.7002 9C11.7002 10.494 10.4942 11.7 9.00024 11.7C7.50624 11.7 6.30024 10.494 6.30024 9Z" fill="#FB0D1B"/>
</svg>
