<svg xmlns="http://www.w3.org/2000/svg" viewBox="0 0 67 67">
  <path d="M33.5 39.08a10.06 10.06 0 0 0 10-10v-7.86a1.12 1.12 0 1 0-2.23 0V29a7.82 7.82 0 0 1-15.64 0v-6.7a1.12 1.12 0 0 0-2.23 0V29a10.06 10.06 0 0 0 10.1 10.08z"/>
  <path d="M32.38 19v7.8a1.12 1.12 0 0 0 2.24 0V19a1.12 1.12 0 0 0-2.24 0zM38 29a1.11 1.11 0 0 0 1.11-1.11V20.1a1.12 1.12 0 1 0-2.23 0v7.82A1.12 1.12 0 0 0 38 29z"/>
  <path d="M27.92 16.59v9.09a1.12 1.12 0 1 0 2.23 0v-9.09a4.47 4.47 0 1 0-2.23 0zm-.82-5.42a2.23 2.23 0 0 1 4.17 1.1 2.25 2.25 0 0 1-1.12 1.94v-1.93a1.12 1.12 0 0 0-2.23 0v1.93a2.22 2.22 0 0 1-.82-3.04z"/>
  <path d="M63.65 0H3.35A3.35 3.35 0 0 0 0 3.35V48a3.35 3.35 0 0 0 3.35 3.35h20l-.89 8.93H19a1.12 1.12 0 0 0-1.11 1.12v3.35h-2.26V67h35.74v-2.23h-2.24v-3.35A1.12 1.12 0 0 0 48 60.3h-3.44l-.89-8.93h20A3.35 3.35 0 0 0 67 48V3.35A3.35 3.35 0 0 0 63.65 0zM46.9 62.53v2.24H20.1v-2.24zM24.68 60.3l.9-8.93h15.85l.89 8.93zM64.77 48a1.12 1.12 0 0 1-1.12 1.11H3.35A1.12 1.12 0 0 1 2.23 48V3.35a1.12 1.12 0 0 1 1.12-1.12h60.3a1.12 1.12 0 0 1 1.12 1.12z"/>
  <path d="M60.3 4.47H6.7A2.23 2.23 0 0 0 4.46 6.7v34.62a1.12 1.12 0 0 0 1.12 1.11h55.83a1.12 1.12 0 0 0 1.12-1.11V6.7a2.23 2.23 0 0 0-2.23-2.23zm0 35.73H6.7V6.7h53.6zM32.38 44.67h2.23v2.23h-2.23z"/>
</svg>