<svg xmlns="http://www.w3.org/2000/svg" viewBox="0 0 82 63">
  <path d="M55.12 56.97h-3.35V52.5h-2.02v10.35h2.02v-4.31h3.35v4.31h2.01V52.5h-2.01v4.47zM39.93 52.5h-2.34l-1.48 3.66h-.04l-1.46-3.66h-2.33l2.59 5.13-2.65 5.22h2.34l1.53-3.74h.04l1.53 3.74h2.45l-2.77-5.22 2.59-5.13zM71.09 52.36a3.73 3.73 0 0 0-2.76 1 3.88 3.88 0 0 0-1 2.85v2.89a3.85 3.85 0 0 0 1 2.85 4.24 4.24 0 0 0 5.52 0 3.85 3.85 0 0 0 1-2.85v-2.86a3.81 3.81 0 0 0-1-2.85 3.73 3.73 0 0 0-2.76-1.03zm1.79 6.77a2.76 2.76 0 0 1-.45 1.72 1.59 1.59 0 0 1-1.34.58 1.55 1.55 0 0 1-1.32-.58 2.76 2.76 0 0 1-.45-1.72v-2.91a2.8 2.8 0 0 1 .44-1.71 1.59 1.59 0 0 1 1.33-.57 1.61 1.61 0 0 1 1.33.57 2.7 2.7 0 0 1 .46 1.71zM18.97 58.28h3.19v-1.56h-3.19v-2.64h3.8V52.5h-5.81v10.35h5.83v-1.57h-3.82v-3zM.36 54.08h2.38v8.77h2.03v-8.77h2.44V52.5H.36v1.58zM0 16.75L10.55 4.07V1.54H0v15.21zM0 42.11h10.55v-33L0 21.81v20.3zM50.96 36.8l.64-.71.62-.72.58-.77.54-.77.51-.81.48-.82.44-.84.4-.86.37-.89.34-.9.28-.92.25-.94.21-.95H45.79l-.17.43-.18.41-.2.42-.21.4-.22.39-.25.38-.25.38-.28.36-.28.35-.3.34-.31.34-.32.31-.35.31-.34.29-.36.29-.37.27-.38.26-.39.23-.41.23-.42.22-.42.2-.42.18-.45.16-.44.15-.46.14-.45.12-.47.1-.48.09-.48.06-.49.04-.48.04-.5.01-.63-.01-.61-.06-.6-.07-.6-.11-.59-.13-.57-.16-.57-.18-.55-.22-.54-.24-.52-.26-.51-.28-.49-.32-.48-.33-.46-.35-.45-.37-.42-.4-.4-.41-.39-.43-.36-.45-.34-.46-.31-.47-.3-.5-.27-.51-.25-.52-.22-.54-.19-.55-.16-.56-.15-.57-.1-.58-.08-.58-.05-.6-.01-.6.01-.61.05-.6.08-.59.1-.59.15-.57.16-.56.19-.55.22-.53.25-.53.27-.52.3-.49.31-.48.34-.47.36-.45.39-.43.4-.41.42-.39.45-.37.46-.36.48-.33.49-.31.51-.28.52-.27.54-.24.55-.21.57-.18.57-.17.59-.13.6-.1.6-.08.61-.05.63-.01.47.01.47.02.47.04.45.07.46.07.45.1.45.12.43.12.43.15.43.15.41.17.4.19.4.2.4.21.38.23.38.24.35.25.36.27.35.27.33.29.32.3.31.31.3.33.29.33.28.33.27.36.25.35.24.38.22.38.22.37.19.4.19.4h10.87l-.23-.93-.25-.91-.3-.9-.34-.89-.37-.86-.42-.83-.44-.83-.48-.81-.52-.77-.55-.77-.57-.73-.62-.71-.63-.69-.67-.65-.7-.63-.72-.6-.75-.58-.76-.54-.81-.51-.82-.48-.83-.45-.87-.41-.88-.37-.91-.35-.91-.3-.95-.27-.94-.22-.97-.2-.99-.15-1-.1-1-.07L34.26 0l-1.17.03-1.15.09-1.13.14-1.11.19-1.09.24-1.08.3-1.06.34-1.02.4-1 .44-.98.49-.96.52-.91.57-.89.62-.86.65-.82.69-.79.73-.76.76-.71.8-.67.83-.63.86-.59.89-.56.93-.5.94-.44.97-.41 1-.36 1.02-.31 1.04-.24 1.07-.2 1.09-.15 1.09-.09 1.12-.03 1.13.03 1.13.09 1.11.15 1.09.2 1.08.24 1.05.31 1.04.36 1.03.41.99.44.96.5.95.56.92.59.9.63.86.67.82.71.8.76.76.79.73.82.69.86.65.89.61.91.58.96.53.98.48 1 .44 1.02.4 1.06.35 1.08.29 1.09.24 1.11.2 1.13.14 1.15.08 1.17.03 1.03-.02 1.03-.06 1.02-.12.99-.15.98-.19.97-.24.95-.28.93-.31.93-.36.89-.38.86-.43.86-.46.82-.49.81-.53.78-.56.76-.59.72-.62.7-.65.67-.67zM82 32.32H67.54V1.54h-10.5v40.61h16.95L82 32.32z"/>
</svg>