<svg width="14" height="20" viewBox="0 0 14 20" fill="none" xmlns="http://www.w3.org/2000/svg">
<path fill-rule="evenodd" clip-rule="evenodd" d="M12.0603 5.06C12.0603 7.86 9.80029 10.12 7.0003 10.12C4.20029 10.12 1.9403 7.86 1.9403 5.06C1.9403 2.27 4.20029 0 7.0003 0C9.80029 0 12.0603 2.27 12.0603 5.06ZM7.00029 2.57C8.38029 2.57 9.50029 3.69 9.50029 5.06C9.50029 6.44 8.38029 7.55 7.00029 7.55C5.6203 7.55 4.50029 6.44 4.50029 5.06C4.50029 3.69 5.6203 2.57 7.00029 2.57ZM12.8303 10.74C12.5503 10.17 11.7603 9.69 10.7103 10.5C9.28029 11.64 7.0003 11.64 7.0003 11.64C7.0003 11.64 4.7203 11.64 3.2903 10.5C2.2403 9.69 1.4503 10.17 1.1703 10.74C0.670295 11.74 1.2303 12.23 2.5003 13.04C3.5903 13.74 5.0803 14 6.0403 14.1L5.24029 14.9L5.17067 14.969L5.1702 14.9695C4.05532 16.0746 2.98491 17.1356 2.2503 17.88C1.8003 18.34 1.8003 19.07 2.2503 19.5L2.3903 19.66C2.8403 20.11 3.5803 20.11 4.0303 19.66L7.0003 16.68C8.15013 17.8098 9.23999 18.8997 9.99998 19.6597L10.0002 19.6599L10.0003 19.66C10.4503 20.11 11.1803 20.11 11.6403 19.66L11.7703 19.5C12.2303 19.07 12.2303 18.34 11.7703 17.88L8.7903 14.9L8.0003 14.09C8.95029 14 10.4203 13.73 11.5003 13.04C12.7703 12.23 13.3303 11.74 12.8303 10.74Z" fill="#FB0D1B"/>
</svg>
