

<svg xmlns="http://www.w3.org/2000/svg" viewBox="0 0 34 68">
  <path d="M28.9 0H5.1A5.1 5.1 0 000 5.1v57.8A5.1 5.1 0 005.1 68h23.8a5.1 5.1 0 005.1-5.1V5.1A5.1 5.1 0 0028.9 0zm1.7 62.9a1.7 1.7 0 01-1.7 1.7H5.1a1.7 1.7 0 01-1.7-1.7V15.3h27.2zm0-51H3.4v-1.7h27.2zm0-5.1H3.4V5a1.7 1.7 0 011.7-1.7h23.8a1.7 1.7 0 011.7 1.7z"/>
  <path d="M17 35.7a5.1 5.1 0 10-5.1-5.1 5.1 5.1 0 005.1 5zm0-6.8a1.7 1.7 0 11-1.7 1.7 1.7 1.7 0 011.7-1.7z"/>
  <path d="M10.2 49.3h13.6a1.7 1.7 0 000-3.4H10.2a1.7 1.7 0 000 3.4z"/>
  <path d="M10.2 54.4h13.6a1.7 1.7 0 100-3.4H10.2a1.7 1.7 0 000 3.4z"/>
  <path d="M10.2 59.5h13.6a1.7 1.7 0 000-3.4H10.2a1.7 1.7 0 000 3.4z"/>
</svg>