<svg width="20" height="20" viewBox="0 0 20 20" fill="none" xmlns="http://www.w3.org/2000/svg">
<path fill-rule="evenodd" clip-rule="evenodd" d="M13.3858 12.5786H14.2949L20.001 18.2962L18.2971 20L12.5796 14.2939V13.3905L12.2651 13.076C10.9672 14.191 9.28057 14.8656 7.4338 14.8656C3.32859 14.8656 0.000976562 11.538 0.000976562 7.43282C0.000976562 3.32762 3.32859 0 7.4338 0C11.539 0 14.8666 3.32762 14.8666 7.43282C14.8666 9.27959 14.1919 10.9663 13.0713 12.2642L13.3858 12.5786ZM2.2883 7.43258C2.2883 10.2742 4.59248 12.5784 7.4341 12.5784C10.2757 12.5784 12.5799 10.2742 12.5799 7.43258C12.5799 4.59096 10.2757 2.28678 7.4341 2.28678C4.59248 2.28678 2.2883 4.59096 2.2883 7.43258Z" fill="white"/>
</svg>
