<svg xmlns="http://www.w3.org/2000/svg" viewBox="0 0 57 57">
  <path d="M10 6.18a4.28 4.28 0 1 0 4.28 4.27A4.27 4.27 0 0 0 10 6.18zm0 6.65a2.38 2.38 0 1 1 2.38-2.38A2.38 2.38 0 0 1 10 12.83zM47.5 10a1 1 0 0 0 0-1.9 1 1 0 1 0 0 1.9zM43.7 10a1 1 0 1 0-1-1 .95.95 0 0 0 1 1zM49.4 12.83a.95.95 0 0 0 0-1.9 1 1 0 0 0 0 1.9zM45.6 12.83a1 1 0 1 0 0-1.9.95.95 0 1 0 0 1.9zM39.9 10a1 1 0 1 0-.9-1 .95.95 0 0 0 .9 1zM41.8 12.83a1 1 0 1 0-.95-.95.95.95 0 0 0 .95.95zM36.1 10a1 1 0 1 0-1-1 .95.95 0 0 0 1 1zM38 12.83a1 1 0 1 0-1-.95.95.95 0 0 0 1 .95zM32.3 10a1 1 0 0 0 0-1.9 1 1 0 0 0 0 1.9zM34.2 12.82a.95.95 0 1 0-1-1 .95.95 0 0 0 1 1z"/>
  <path d="M57 16.05V4.85A4.39 4.39 0 0 0 52.62.47H4.38A4.39 4.39 0 0 0 0 4.85v11.2a4.35 4.35 0 0 0 1.69 3.42A4.38 4.38 0 0 0 0 22.9v11.2a4.35 4.35 0 0 0 1.69 3.42A4.38 4.38 0 0 0 0 41v11.2a4.38 4.38 0 0 0 4.38 4.37h48.24A4.38 4.38 0 0 0 57 52.15V41a4.38 4.38 0 0 0-1.69-3.43A4.35 4.35 0 0 0 57 34.1V22.9a4.38 4.38 0 0 0-1.69-3.43A4.35 4.35 0 0 0 57 16.05zM55.1 41v11.2a2.48 2.48 0 0 1-2.48 2.47H4.38a2.48 2.48 0 0 1-2.48-2.52V41a2.49 2.49 0 0 1 2.48-2.48h48.24A2.49 2.49 0 0 1 55.1 41zm0-18.05V34.1a2.48 2.48 0 0 1-2.48 2.47H4.38A2.48 2.48 0 0 1 1.9 34.1V22.9a2.49 2.49 0 0 1 2.48-2.48h48.24a2.49 2.49 0 0 1 2.48 2.48zM4.38 18.52a2.48 2.48 0 0 1-2.48-2.47V4.85a2.49 2.49 0 0 1 2.48-2.48h48.24a2.49 2.49 0 0 1 2.48 2.48v11.2a2.48 2.48 0 0 1-2.48 2.47z"/>
  <path d="M10 32.77a4.28 4.28 0 1 0-4.3-4.27 4.28 4.28 0 0 0 4.3 4.27zm0-6.65a2.38 2.38 0 1 1-2.4 2.38 2.39 2.39 0 0 1 2.4-2.38zM47.5 28a1 1 0 1 0-1-1 .95.95 0 0 0 1 1zM43.7 28a.95.95 0 1 0-1-.94.95.95 0 0 0 1 .94zM49.4 30.87a.95.95 0 1 0-.95-.95.95.95 0 0 0 .95.95zM45.6 30.87a.95.95 0 1 0-1-.95.95.95 0 0 0 1 .95zM39.9 28a.95.95 0 1 0 0-1.9 1 1 0 0 0 0 1.9zM41.8 30.87a1 1 0 1 0 0-1.9.95.95 0 1 0 0 1.9zM36.1 28a.95.95 0 1 0 0-1.9.95.95 0 0 0 0 1.9zM38 30.87A1 1 0 0 0 38 29a1 1 0 0 0 0 1.9zM32.3 28a1 1 0 1 0-.95-1 .95.95 0 0 0 .95 1zM34.2 30.87a.95.95 0 1 0-1-.95.95.95 0 0 0 1 .95zM10 50.82a4.28 4.28 0 1 0-4.3-4.27 4.28 4.28 0 0 0 4.3 4.27zm0-6.65a2.38 2.38 0 1 1-2.4 2.38 2.39 2.39 0 0 1 2.4-2.38zM47.5 46.08a1 1 0 1 0-1-.95.95.95 0 0 0 1 .95zM43.7 46.07a.95.95 0 1 0-1-1 .95.95 0 0 0 1 1zM49.4 48.92a1 1 0 1 0-.95-1 .95.95 0 0 0 .95 1zM45.6 48.92a1 1 0 1 0-1-1 .95.95 0 0 0 1 1zM39.9 46.08a1 1 0 1 0 0-1.9 1 1 0 1 0 0 1.9zM41.8 48.92a1 1 0 0 0 0-1.9 1 1 0 0 0 0 1.9zM36.1 46.08a.95.95 0 1 0 0-1.9.95.95 0 1 0 0 1.9zM38 48.92A1 1 0 0 0 38 47a.95.95 0 0 0 0 1.9zM32.3 46.08a1 1 0 1 0-.95-.95.95.95 0 0 0 .95.95zM34.2 48.92a1 1 0 1 0-1-1 .95.95 0 0 0 1 1z"/>
</svg>