<svg xmlns="http://www.w3.org/2000/svg" viewBox="0 0 68 68">
 
  <path d="M15.63 19.27H37.7a1.15 1.15 0 0 0 .93-.49 1.13 1.13 0 0 0 .13-1L34.17 5.27a1.14 1.14 0 0 0-1.06-.74H11a1.15 1.15 0 0 0-.93.49 1.13 1.13 0 0 0-.13 1l4.59 12.47a1.14 1.14 0 0 0 1.1.78zM32.32 6.8L36.08 17H16.42L12.66 6.8z"/>
  <path d="M4.54 17.24v41.89a3.32 3.32 0 0 0 1 2.4l6.14 6.14a1.08 1.08 0 0 0 .36.24 1.12 1.12 0 0 0 .44.09H44.2a1.14 1.14 0 0 0 1.14-1.13v-3.4h14.73a4.53 4.53 0 0 0 4.53-4.54V30.6a4.53 4.53 0 0 0-4.53-4.53H45.34v-3.4a1.13 1.13 0 0 0-.06-.36L37.33.74A1.14 1.14 0 0 0 36.27 0H4.54a1.1 1.1 0 0 0-.4.08h-.07a1.13 1.13 0 0 0-.31.21l-.1.12a.56.56 0 0 0-.09.17 1 1 0 0 0-.08.38v9.68A10.5 10.5 0 0 0 4 14.41a8.31 8.31 0 0 1 .54 2.83zM6.8 59.13V17.24a10.49 10.49 0 0 0-.63-3.6 8.31 8.31 0 0 1-.5-2.83V7.49l5.67 15.38v41.26l-4.21-4.2a1.14 1.14 0 0 1-.33-.8zM51 28.33V61.2H40.8a2.26 2.26 0 0 1-2.26-2.27V30.6a2.27 2.27 0 0 1 2.26-2.27zm11.34 2.27v28.33a2.27 2.27 0 0 1-2.27 2.27h-1.13V28.33h1.13a2.27 2.27 0 0 1 2.27 2.27zm-5.67-2.27V61.2h-3.4V28.33zM40.8 26.07a4.53 4.53 0 0 0-4.53 4.53v28.33a4.53 4.53 0 0 0 4.53 4.54h2.27v2.26H13.6V23.8h29.47v2.27zm-5.32-23.8l7.09 19.26H13.26L6.16 2.27z"/>
  <path d="M17.8 12.13l2.27-2.26a1.13 1.13 0 0 0 .31-1.1 1.11 1.11 0 0 0-.81-.77 1.1 1.1 0 0 0-1.1.31l-2.27 2.22a1.16 1.16 0 0 0-.31 1.1 1.14 1.14 0 0 0 .81.81 1.1 1.1 0 0 0 1.1-.31zM18.47 15.53a1.12 1.12 0 0 0 1.6 0l5.67-5.66a1.16 1.16 0 0 0 .31-1.1 1.14 1.14 0 0 0-.81-.77 1.1 1.1 0 0 0-1.1.31l-5.67 5.66a1.13 1.13 0 0 0 0 1.56zM31.74 28.33h-6.8a2.27 2.27 0 0 0-2.27 2.27v2.27a2.26 2.26 0 0 0 2.27 2.26h6.8A2.26 2.26 0 0 0 34 32.87V30.6a2.27 2.27 0 0 0-2.26-2.27zm-6.8 4.54V30.6h6.8v2.27zM17 26.07a1.12 1.12 0 0 0-1.13 1.13v2.27a1.13 1.13 0 0 0 2.26 0V27.2A1.12 1.12 0 0 0 17 26.07zM17 32.87A1.12 1.12 0 0 0 15.87 34v28.33a1.13 1.13 0 1 0 2.26 0V34A1.12 1.12 0 0 0 17 32.87zM42 52.13a4 4 0 1 0 5.54 0 4 4 0 1 0-5.54 0zM46.47 55a1.7 1.7 0 1 1-1.7-1.7 1.7 1.7 0 0 1 1.7 1.7zm-1.7-7.37a1.7 1.7 0 1 1-1.7 1.7 1.7 1.7 0 0 1 1.7-1.73z"/>
</svg>