<svg width="295" height="132" viewBox="0 0 295 132" fill="none" xmlns="http://www.w3.org/2000/svg">
<path d="M4.14277 130.24C2.992 130.24 2.01385 129.829 1.20831 129.008C0.40277 128.187 0 127.189 0 126.016V11.264C0 9.97333 0.40277 8.976 1.20831 8.272C2.01385 7.45066 2.992 7.03999 4.14277 7.03999H20.196C21.4619 7.03999 22.44 7.45066 23.1305 8.272C23.936 8.976 24.3388 9.97333 24.3388 11.264V109.296H79.0579C80.3238 109.296 81.3595 109.707 82.165 110.528C82.9706 111.349 83.3733 112.405 83.3733 113.696V126.016C83.3733 127.307 82.9706 128.363 82.165 129.184C81.3595 129.888 80.3238 130.24 79.0579 130.24H4.14277Z" fill="white"/>
<path d="M101.511 23.584C100.361 23.584 99.3825 23.1733 98.577 22.352C97.7714 21.5307 97.3687 20.5333 97.3687 19.36V6.688C97.3687 5.51467 97.7714 4.51733 98.577 3.69599C99.3825 2.87466 100.361 2.464 101.511 2.464H117.219C118.37 2.464 119.348 2.87466 120.154 3.69599C121.075 4.51733 121.535 5.51467 121.535 6.688V19.36C121.535 20.5333 121.132 21.5307 120.327 22.352C119.521 23.1733 118.485 23.584 117.219 23.584H101.511ZM102.202 130.24C101.051 130.24 100.073 129.829 99.2674 129.008C98.4619 128.187 98.0591 127.189 98.0591 126.016V42.944C98.0591 41.7707 98.4619 40.7733 99.2674 39.952C100.073 39.1307 101.051 38.72 102.202 38.72H116.529C117.795 38.72 118.773 39.1307 119.463 39.952C120.269 40.656 120.672 41.6533 120.672 42.944V126.016C120.672 127.189 120.269 128.187 119.463 129.008C118.773 129.829 117.795 130.24 116.529 130.24H102.202Z" fill="white"/>
<path d="M157.382 130.24C156.231 130.24 155.253 129.829 154.448 129.008C153.642 128.187 153.239 127.189 153.239 126.016V57.376H139.258C138.107 57.376 137.129 56.9653 136.323 56.144C135.518 55.2053 135.115 54.1493 135.115 52.976V42.944C135.115 41.7707 135.518 40.7733 136.323 39.952C137.129 39.1307 138.107 38.72 139.258 38.72H153.239V31.504C153.239 10.5013 164.517 0 187.072 0H198.81C200.076 0 201.054 0.410665 201.744 1.23199C202.55 1.93599 202.953 2.93333 202.953 4.224V14.256C202.953 15.5467 202.55 16.6027 201.744 17.424C200.939 18.2453 199.961 18.656 198.81 18.656H187.763C183.275 18.656 180.11 19.7707 178.269 22C176.543 24.2293 175.68 27.6907 175.68 32.384V38.72H197.084C198.35 38.72 199.328 39.1307 200.018 39.952C200.824 40.656 201.227 41.6533 201.227 42.944V52.976C201.227 54.2667 200.824 55.3227 200.018 56.144C199.213 56.9653 198.235 57.376 197.084 57.376H175.68V126.016C175.68 127.189 175.277 128.187 174.471 129.008C173.666 129.829 172.687 130.24 171.537 130.24H157.382Z" fill="white"/>
<path d="M252.364 132C239.59 132 229.406 128.245 221.811 120.736C214.331 113.109 210.361 102.432 209.901 88.704L209.728 84.304L209.901 79.904C210.476 66.528 214.504 56.0267 221.984 48.4C229.579 40.7733 239.705 36.96 252.364 36.96C265.943 36.96 276.415 41.184 283.78 49.632C291.26 58.08 295 69.344 295 83.424V87.12C295 88.2933 294.597 89.2907 293.792 90.112C292.986 90.9333 291.95 91.344 290.685 91.344H233.376V92.752C233.606 99.2053 235.333 104.661 238.555 109.12C241.892 113.461 246.438 115.632 252.191 115.632C258.981 115.632 264.447 112.933 268.59 107.536C269.626 106.245 270.431 105.424 271.006 105.072C271.697 104.72 272.675 104.544 273.941 104.544H288.786C289.822 104.544 290.685 104.896 291.375 105.6C292.181 106.187 292.583 106.949 292.583 107.888C292.583 110.704 290.915 114.048 287.578 117.92C284.355 121.675 279.695 124.96 273.596 127.776C267.497 130.592 260.419 132 252.364 132ZM271.524 76.56V76.032C271.524 69.1093 269.798 63.536 266.346 59.312C263.009 55.088 258.348 52.976 252.364 52.976C246.38 52.976 241.719 55.088 238.382 59.312C235.045 63.536 233.376 69.1093 233.376 76.032V76.56H271.524Z" fill="white"/>
</svg>
