<svg width="51" height="62" viewBox="0 0 51 62" fill="none" xmlns="http://www.w3.org/2000/svg">
<path d="M0 0H51V50H19.5L8 61.5V50H0V0Z" fill="#FB0D1B"/>
<path fill-rule="evenodd" clip-rule="evenodd" d="M16.0507 32.3289H15.2211V35.3029H14.5346V32.3289H13.7266V31.7962H16.0507V32.3289ZM21.1166 33.7543H20.037V34.7727H21.3303V35.3029H19.3531V31.7962H21.3253V32.3289H20.037V33.2249H21.1166V33.7543ZM25.8307 33.0367H25.8456L26.3474 31.7962H27.1406L26.2629 33.5356L27.1994 35.3029H26.3722L25.8531 34.0362H25.8382L25.3215 35.3029H24.5259L25.4258 33.5356L24.5457 31.7962H25.3364L25.8307 33.0367ZM32.9716 35.3029H32.2893V33.8414H31.1517V35.3029H30.4678V31.7962H31.1517V33.3112H32.2893V31.7962H32.9716V35.3029ZM38.9905 34.0411C38.9905 34.4538 38.8737 34.7752 38.6395 35.007C38.4051 35.238 38.0929 35.3531 37.703 35.3539C37.313 35.3531 37.0017 35.238 36.7691 35.007C36.5363 34.7752 36.4196 34.4538 36.4196 34.0411V33.0629C36.4196 32.6519 36.5355 32.3297 36.7674 32.0963C37 31.8628 37.3105 31.7461 37.7005 31.7461C38.0905 31.7461 38.4026 31.8628 38.6378 32.0963C38.8729 32.3297 38.9905 32.6519 38.9905 33.0629V34.0411ZM38.3091 33.0564C38.3091 32.8007 38.2569 32.6084 38.1526 32.4777C38.0483 32.3478 37.8975 32.2829 37.7005 32.2829C37.5018 32.2829 37.3519 32.3478 37.2517 32.4768C37.1516 32.6059 37.1011 32.7991 37.1011 33.0564V34.0411C37.1011 34.3009 37.1516 34.4966 37.2525 34.6264C37.3536 34.7563 37.5043 34.8212 37.703 34.8212C37.9017 34.8212 38.0524 34.7563 38.1551 34.6264C38.2577 34.4966 38.3091 34.3009 38.3091 34.0411V33.0564Z" fill="white"/>
<path fill-rule="evenodd" clip-rule="evenodd" d="M13.6055 14.5215H17.1828V15.378L13.6055 19.6787V14.5215Z" fill="white"/>
<path fill-rule="evenodd" clip-rule="evenodd" d="M13.6055 21.3912L17.1828 17.0868V28.2723H13.6055V21.3912Z" fill="white"/>
<path fill-rule="evenodd" clip-rule="evenodd" d="M29.1269 22.78L29.0703 22.9258L29.01 23.0643L28.9421 23.2065L28.8705 23.3413L28.7951 23.4725L28.7122 23.6037L28.6255 23.7313L28.5313 23.8516L28.437 23.9718L28.3352 24.0885L28.2297 24.2015L28.1204 24.3071L28.0035 24.4129L27.8866 24.5113L27.766 24.6097L27.6378 24.7008L27.5097 24.7882L27.3777 24.8684L27.2383 24.9449L27.0988 25.0178L26.9555 25.0871L26.8123 25.1491L26.6615 25.2037L26.5107 25.2547L26.3562 25.3021L26.2016 25.3422L26.0433 25.375L25.8812 25.4042L25.7191 25.4261L25.5532 25.4406L25.3873 25.4516L25.2177 25.4552L25.0066 25.4516L24.7993 25.4333L24.5957 25.4078L24.3922 25.3714L24.1924 25.3276L24.0001 25.273L23.8079 25.211L23.6194 25.1381L23.4384 25.0579L23.2613 24.9668L23.0879 24.8721L22.922 24.7664L22.7599 24.6534L22.6016 24.5331L22.4508 24.4092L22.3076 24.2743L22.1719 24.1359L22.0399 23.9901L21.9193 23.837L21.8024 23.6803L21.6969 23.5199L21.5951 23.3522L21.5046 23.1773L21.4217 23.0024L21.3463 22.8201L21.2822 22.6342L21.2257 22.4447L21.1767 22.2515L21.1427 22.0547L21.1163 21.8579L21.0975 21.6538L21.0937 21.4497L21.0975 21.242L21.1163 21.0415L21.1427 20.8411L21.1767 20.6406L21.2257 20.4475L21.2822 20.2579L21.3463 20.072L21.4217 19.8898L21.5046 19.7112L21.5951 19.5362L21.6969 19.3686L21.8024 19.2046L21.9193 19.0479L22.0399 18.8948L22.1719 18.749L22.3076 18.6105L22.4508 18.4757L22.6016 18.3517L22.7599 18.2315L22.922 18.1185L23.0879 18.0128L23.2613 17.918L23.4384 17.8269L23.6194 17.7467L23.8079 17.6738L24.0001 17.6119L24.1924 17.5572L24.3922 17.5098L24.5957 17.477L24.7993 17.4515L25.0066 17.4333L25.2177 17.4296L25.3798 17.4333L25.5381 17.4406L25.6965 17.4551L25.851 17.477L26.0056 17.5025L26.1601 17.5353L26.3109 17.5754L26.458 17.6155L26.6012 17.6665L26.7482 17.7176L26.8877 17.7759L27.0234 17.8415L27.1591 17.9071L27.2948 17.98L27.423 18.0565L27.5511 18.1367L27.6718 18.2242L27.7924 18.3153L27.9093 18.4064L28.0223 18.5048L28.1317 18.6069L28.2372 18.7126L28.339 18.8219L28.437 18.9349L28.5313 19.0479L28.6217 19.1681L28.7084 19.2884L28.7876 19.416L28.863 19.5435L28.9384 19.6711L29.0025 19.806L29.0665 19.9408H32.7495L32.6741 19.6274L32.5874 19.3176L32.4856 19.0114L32.3725 18.7126L32.2444 18.421L32.1049 18.1367L31.9541 17.8561L31.792 17.5827L31.6148 17.3203L31.4301 17.0615L31.2341 16.8137L31.0268 16.5731L30.8119 16.3399L30.5857 16.1176L30.3482 15.9062L30.1032 15.7021L29.8506 15.5052L29.5905 15.323L29.3191 15.1481L29.0402 14.9877L28.7574 14.8346L28.4634 14.6961L28.1656 14.5685L27.8565 14.4519L27.5474 14.3499L27.227 14.2588L26.9065 14.1822L26.5786 14.1166L26.2431 14.0656L25.9038 14.0291L25.5645 14.0073L25.2177 14L24.8219 14.0109L24.4336 14.0401L24.0491 14.0875L23.6722 14.1531L23.3027 14.2332L22.9371 14.3353L22.579 14.4519L22.2322 14.5868L21.8929 14.7362L21.5612 14.9002L21.237 15.0788L20.9279 15.272L20.6263 15.4797L20.336 15.7021L20.0571 15.9353L19.7894 16.1831L19.5331 16.4419L19.2918 16.7116L19.0657 16.9923L18.8508 17.2838L18.651 17.5864L18.4625 17.8998L18.2929 18.2205L18.1421 18.5486L18.0026 18.8875L17.882 19.2337L17.7764 19.5873L17.6935 19.9481L17.6257 20.3162L17.5766 20.688L17.5465 21.067L17.5352 21.4497L17.5465 21.8324L17.5766 22.2078L17.6257 22.5796L17.6935 22.944L17.7764 23.3012L17.882 23.6547L18.0026 24.001L18.1421 24.3363L18.2929 24.6643L18.4625 24.985L18.651 25.2985L18.8508 25.601L19.0657 25.8926L19.2918 26.1732L19.5331 26.4429L19.7894 26.7017L20.0571 26.9459L20.336 27.1828L20.6263 27.4015L20.9279 27.6092L21.237 27.806L21.5612 27.9846L21.8929 28.1486L22.2322 28.2981L22.579 28.4329L22.9371 28.5495L23.3027 28.648L23.6722 28.7318L24.0491 28.7974L24.4336 28.8448L24.8219 28.8739L25.2177 28.8849L25.5683 28.8776L25.9189 28.8557L26.2619 28.8156L26.5974 28.7646L26.9329 28.699L27.2609 28.6188L27.5813 28.524L27.8979 28.4183L28.2108 28.2981L28.5124 28.1669L28.8064 28.0211L29.0967 27.868L29.3757 27.7003L29.6508 27.5217L29.9147 27.3322L30.1711 27.1318L30.4161 26.9204L30.6536 26.7017L30.8797 26.4721L31.0984 26.2315L31.3057 25.9873L31.5017 25.7285L31.6865 25.4661L31.8598 25.1928L32.0219 24.9158L32.1727 24.6279L32.3084 24.3363L32.4328 24.0374L32.5459 23.7313L32.6439 23.4178L32.7269 23.1007L32.7985 22.78H29.1269Z" fill="white"/>
<path fill-rule="evenodd" clip-rule="evenodd" d="M32.9404 14.5215H36.499V24.9562H41.3995L38.6854 28.2874H32.9404V14.5215Z" fill="white"/>
</svg>
