<svg width="200" height="41" viewBox="0 0 200 41" fill="none" xmlns="http://www.w3.org/2000/svg">
<path fill-rule="evenodd" clip-rule="evenodd" d="M133.356 17.101L139.803 4.463H139.916L147.045 17.101H154.372L144.916 0.770996H138.724L130.175 17.101H133.356Z" fill="white"/>
<path fill-rule="evenodd" clip-rule="evenodd" d="M31.9961 9.97314L42.1071 9.86014C41.9931 12.1321 40.6871 13.4101 40.0051 13.9491C38.3301 15.2271 35.9441 15.3411 34.8081 15.3411C33.1321 15.3411 31.6841 15.1121 30.2071 14.2611C29.2691 13.7211 28.1901 12.8121 27.6511 12.0461L27.1961 11.3931L23.9021 13.2101C24.8681 14.2901 26.3731 15.3681 27.9631 16.1341C30.4051 17.3001 32.6491 17.5841 35.3761 17.5841C38.2721 17.5841 42.7891 17.1851 46.0541 14.8281C48.3261 13.1811 49.3771 10.9381 49.3771 8.95014C49.3771 6.96214 48.3261 4.69014 46.0541 3.07114C43.2421 1.02714 39.1251 0.317139 35.4611 0.317139C33.0751 0.317139 30.8881 0.544139 28.6731 1.33914C26.8271 1.96414 25.3791 2.81614 23.9021 4.06514L27.1961 5.85514L27.9911 5.03114C28.6441 4.32114 29.7521 3.66814 30.7461 3.27014C32.0811 2.70214 33.4731 2.53214 34.9211 2.53214C37.8471 2.53214 39.5221 3.44114 40.4591 4.32114C41.0841 4.89014 41.9081 5.96914 42.1061 7.61614L31.9961 7.47414V9.97314Z" fill="white"/>
<path fill-rule="evenodd" clip-rule="evenodd" d="M166.556 2.30512C168.203 2.30512 170.077 2.64612 171.527 4.43512C172.691 5.85512 172.889 7.50312 172.889 8.95112C172.889 10.4001 172.691 12.0181 171.527 13.4661C170.077 15.2561 168.204 15.5961 166.556 15.5961C164.908 15.5961 163.035 15.2561 161.586 13.4661C160.421 12.0181 160.223 10.4001 160.223 8.95112C160.223 7.50312 160.421 5.85512 161.586 4.43512C163.034 2.64612 164.908 2.30512 166.556 2.30512ZM166.556 17.5851C169.624 17.5851 173.911 16.9031 176.781 14.8291C179.052 13.2111 180.133 10.9111 180.133 8.95112C180.133 6.99212 179.053 4.69112 176.781 3.07212C173.912 0.999115 169.625 0.318115 166.556 0.318115C163.518 0.318115 159.201 0.999115 156.304 3.07212C154.033 4.69112 152.981 6.99212 152.981 8.95112C152.981 10.9111 154.033 13.2111 156.304 14.8291C159.2 16.9031 163.518 17.5851 166.556 17.5851Z" fill="white"/>
<path fill-rule="evenodd" clip-rule="evenodd" d="M110.238 4.8901C110.863 4.6911 111.601 4.5771 112.341 4.5771H113.108V13.0681H112.341C111.602 13.0681 110.863 12.9551 110.238 12.7561C109.671 12.5851 109.158 12.3581 108.761 12.0181C107.995 11.4211 107.369 10.4271 107.369 8.8081C107.369 7.2181 107.995 6.2251 108.761 5.6281C109.158 5.2871 109.671 5.0601 110.238 4.8901ZM122.109 15.1421C125.773 14.9151 127.704 14.0631 128.726 13.4381C130.659 12.2741 131.539 10.6271 131.539 8.8091C131.539 6.4241 129.976 5.0041 128.726 4.2091C126.994 3.1021 124.551 2.6461 122.109 2.5041C121.457 2.4481 120.802 2.4481 120.149 2.4481H119.44V0.204102H112.879V2.4481H112.196C111.544 2.4481 110.89 2.4481 110.237 2.5041C107.766 2.6461 105.325 3.1011 103.62 4.2091C102.371 5.0041 100.808 6.4241 100.808 8.8091C100.808 10.6271 101.688 12.2741 103.62 13.4381C104.613 14.0631 106.545 14.9161 110.237 15.1421C110.834 15.1711 111.487 15.1981 112.196 15.1981H112.879V17.5851H119.44V15.1981H120.149C120.86 15.1981 121.514 15.1711 122.109 15.1421ZM122.109 4.8901C122.677 5.0601 123.189 5.2871 123.588 5.6281C124.354 6.2251 124.978 7.2181 124.978 8.8081C124.978 10.4271 124.354 11.4211 123.588 12.0181C123.19 12.3581 122.678 12.5851 122.109 12.7561C121.457 12.9551 120.746 13.0681 119.978 13.0681H119.24V4.5771H119.978C120.746 4.5771 121.457 4.6901 122.109 4.8901Z" fill="white"/>
<path fill-rule="evenodd" clip-rule="evenodd" d="M86.354 2.30512C87.974 2.30512 89.8751 2.64612 91.3241 4.43512C92.4891 5.85512 92.687 7.50312 92.687 8.95112C92.687 10.4001 92.4881 12.0181 91.3241 13.4661C89.8751 15.2561 87.973 15.5961 86.354 15.5961C84.707 15.5961 82.8041 15.2561 81.3561 13.4661C80.1911 12.0181 80.0221 10.4001 80.0221 8.95112C80.0221 7.50312 80.1921 5.85512 81.3561 4.43512C82.8041 2.64612 84.707 2.30512 86.354 2.30512ZM86.354 17.5851C89.393 17.5851 93.7101 16.9031 96.5781 14.8291C98.8221 13.2111 99.8721 10.9111 99.8721 8.95112C99.8721 6.99212 98.8211 4.69112 96.5781 3.07212C93.7101 0.999115 89.392 0.318115 86.354 0.318115C83.2871 0.318115 78.9701 0.999115 76.1021 3.07212C73.8301 4.69112 72.7791 6.99212 72.7791 8.95112C72.7791 10.9111 73.8301 13.2111 76.1021 14.8291C78.9701 16.9031 83.2871 17.5851 86.354 17.5851Z" fill="white"/>
<path fill-rule="evenodd" clip-rule="evenodd" d="M61.5891 11.109H62.8111C65.9631 11.109 68.1501 10.768 69.7121 9.859C71.6711 8.694 72.1261 7.104 72.1261 5.855C72.1261 4.633 71.6711 3.043 69.7121 1.936C68.1501 1.055 66.0481 0.770996 62.5271 0.770996H61.5891H51.3081V17.101H57.8691V11.109H61.5891ZM61.5891 3.27C62.3841 3.299 63.4071 3.441 64.1451 3.895C65.1391 4.519 65.3101 5.372 65.3101 5.883C65.3101 6.394 65.1671 7.303 64.0891 7.956C63.3501 8.439 62.4421 8.581 61.5891 8.638C61.3621 8.638 61.1351 8.638 60.9071 8.638H57.8681V3.243H60.9071C61.1061 3.243 61.3331 3.243 61.5891 3.27Z" fill="white"/>
<path fill-rule="evenodd" clip-rule="evenodd" d="M10.81 4.606L14.076 10.171H7.543L10.639 4.492H10.724L10.81 4.606ZM15.411 12.387L18.223 17.101H25.55L15.61 0.770996H9.531L0.5 17.101H3.766L6.35 12.387H15.411Z" fill="white"/>
<path fill-rule="evenodd" clip-rule="evenodd" d="M178.825 3.243H185.868V17.101H192.429V3.243H199.5V0.770996H178.825V3.243Z" fill="white"/>
<path fill-rule="evenodd" clip-rule="evenodd" d="M192.77 28.2051H191.69L187.373 32.3811L188.821 28.2051H187.715L185.783 33.8851H186.891L191.18 29.6821L189.759 33.8851H190.866L192.77 28.2051Z" fill="white"/>
<path fill-rule="evenodd" clip-rule="evenodd" d="M186.066 28.2051H184.988L184.221 30.4221H181.522L182.29 28.2051H181.183L179.25 33.8851H180.358L181.239 31.2441H183.937L183.028 33.8851H184.165L186.066 28.2051Z" fill="white"/>
<path fill-rule="evenodd" clip-rule="evenodd" d="M179.535 28.2051H178.456L174.139 32.3811L175.559 28.2051H174.479L172.549 33.8851H173.627L177.945 29.6821L176.524 33.8851H177.604L179.535 28.2051Z" fill="white"/>
<path fill-rule="evenodd" clip-rule="evenodd" d="M169.453 28.2051L168.8 29.8261C168.516 30.5921 168.402 30.8471 168.117 31.4431C167.748 32.2401 167.379 33.0061 166.415 33.2321L166.243 33.9701C166.811 33.9431 167.237 33.7141 167.522 33.5461C168.628 32.8351 168.998 31.6121 169.822 29.6241L170.105 28.9441H171.468L169.822 33.8831H170.9L172.832 28.2031H169.453V28.2051Z" fill="white"/>
<path fill-rule="evenodd" clip-rule="evenodd" d="M145.256 31.273C145.398 31.244 145.597 31.244 145.823 31.244H146.619L146.222 32.437C146.051 32.664 145.881 32.806 145.653 32.947C145.513 33.033 145.371 33.09 145.257 33.117C145.058 33.203 144.86 33.232 144.66 33.232C144.432 33.232 144.149 33.203 143.978 32.976C143.835 32.777 143.835 32.55 143.921 32.265C144.007 32.04 144.149 31.814 144.461 31.583C144.63 31.471 144.858 31.33 145.256 31.273ZM145.853 33.885H146.818L148.068 30.194C148.267 29.626 148.494 29.059 148.181 28.575C147.926 28.206 147.301 28.063 146.789 28.063C146.137 28.063 145.652 28.149 145.256 28.292C144.432 28.605 144.063 29.146 144.034 29.626L144.999 29.683C145.057 29.486 145.142 29.343 145.256 29.228C145.513 28.917 145.939 28.832 146.477 28.832C146.705 28.832 146.988 28.861 147.103 29.061C147.274 29.258 147.188 29.543 147.103 29.799L146.875 30.535H146.051C145.767 30.535 145.513 30.535 145.256 30.564C144.149 30.705 143.212 31.16 142.814 32.326C142.501 33.205 142.814 33.972 144.063 33.972C144.432 33.972 144.83 33.945 145.227 33.745H145.256C145.652 33.548 145.965 33.263 146.051 33.177H146.079L145.853 33.885Z" fill="white"/>
<path fill-rule="evenodd" clip-rule="evenodd" d="M163.972 31.273C164.142 31.244 164.313 31.244 164.54 31.244H165.364L164.937 32.437C164.765 32.664 164.596 32.806 164.369 32.947C164.227 33.033 164.085 33.09 163.972 33.117C163.773 33.203 163.604 33.232 163.404 33.232C163.148 33.232 162.866 33.203 162.722 32.976C162.552 32.777 162.552 32.55 162.637 32.265C162.722 32.04 162.866 31.814 163.177 31.583C163.347 31.471 163.574 31.33 163.972 31.273ZM164.567 33.885H165.562L166.811 30.194C166.981 29.626 167.208 29.059 166.897 28.575C166.64 28.206 166.016 28.063 165.504 28.063C164.879 28.063 164.368 28.149 163.971 28.292C163.147 28.605 162.806 29.146 162.749 29.626L163.715 29.683C163.772 29.486 163.857 29.343 163.971 29.228C164.254 28.917 164.652 28.832 165.193 28.832C165.419 28.832 165.704 28.861 165.845 29.061C165.987 29.258 165.931 29.543 165.845 29.799L165.588 30.535H164.765C164.482 30.535 164.227 30.535 163.971 30.564C162.865 30.705 161.925 31.16 161.529 32.326C161.216 33.205 161.529 33.972 162.779 33.972C163.147 33.972 163.545 33.945 163.971 33.745C164.368 33.548 164.681 33.263 164.765 33.177H164.823L164.567 33.885Z" fill="white"/>
<path fill-rule="evenodd" clip-rule="evenodd" d="M161.529 28.2051H160.421L156.133 32.3811L157.554 28.2051H156.446L154.514 33.8851H155.622L159.91 29.6821L158.49 33.8851H159.598L161.529 28.2051Z" fill="white"/>
<path fill-rule="evenodd" clip-rule="evenodd" d="M152.015 31.3591C152.213 31.3591 152.384 31.4431 152.497 31.5291C152.64 31.6991 152.64 31.9841 152.526 32.2401C152.412 32.5511 152.213 32.7771 152.044 32.8921C152.044 32.8921 152.015 32.8921 152.015 32.9211C151.788 33.0621 151.475 33.1161 151.163 33.1161H149.828L150.426 31.3291H151.816C151.901 31.3301 151.959 31.3301 152.015 31.3591ZM152.015 28.9451H152.583C152.782 28.9451 153.037 28.9451 153.208 29.1151C153.378 29.3141 153.35 29.5111 153.294 29.7401C153.208 29.9671 153.095 30.1931 152.838 30.3631C152.556 30.5621 152.299 30.5621 152.015 30.5621H150.68L151.247 28.9451H152.015ZM152.015 33.8031C152.384 33.6881 152.725 33.4891 152.981 33.3191C153.294 33.0631 153.606 32.6921 153.776 32.2411C153.89 31.8971 153.919 31.5851 153.747 31.3031C153.635 31.1021 153.407 30.9341 153.096 30.8751L153.124 30.8481C153.493 30.7621 153.806 30.5631 154.004 30.3641C154.202 30.1671 154.373 29.8541 154.486 29.5691C154.657 29.0591 154.571 28.7741 154.373 28.5461C154.09 28.2351 153.635 28.2061 153.266 28.2061H152.016H150.398L148.439 33.8861H151.249C151.504 33.8851 151.761 33.8571 152.015 33.8031Z" fill="white"/>
<path fill-rule="evenodd" clip-rule="evenodd" d="M133.13 28.916C133.3 28.859 133.47 28.83 133.611 28.83C134.718 28.83 134.464 29.768 134.265 30.279L134.18 30.533H133.129H131.85L131.936 30.279C132.22 29.426 132.703 29.059 133.13 28.916ZM133.13 31.273H135.032C135.883 29.226 135.77 28.062 133.868 28.062C133.64 28.062 133.384 28.091 133.13 28.148C132.022 28.404 131.027 29.314 130.431 31.13C129.609 33.546 130.573 33.97 131.88 33.97C132.361 33.97 132.788 33.913 133.13 33.802C134.038 33.488 134.549 32.863 134.634 32.239L133.697 32.094C133.64 32.264 133.499 32.635 133.13 32.891C132.902 33.061 132.589 33.202 132.135 33.202C131.794 33.202 130.943 33.116 131.425 31.813L131.596 31.272H133.13V31.273Z" fill="white"/>
<path fill-rule="evenodd" clip-rule="evenodd" d="M130.005 28.2051H128.926L124.609 32.3811L126.028 28.2051H124.95L123.019 33.8851H124.126L128.414 29.6821L126.994 33.8851H128.102L130.005 28.2051Z" fill="white"/>
<path fill-rule="evenodd" clip-rule="evenodd" d="M118.93 28.2052L116.998 33.8852H118.105L118.985 31.3302H120.037C120.235 31.3302 120.49 31.3302 120.604 31.5292C120.661 31.6132 120.716 31.7852 120.632 32.0682L120.489 32.8362C120.405 33.2032 120.347 33.6022 120.802 33.8282C121.03 33.9142 121.37 33.9712 121.57 33.9712L122.025 33.1472C121.939 33.1472 121.854 33.1472 121.768 33.1182C121.54 33.0342 121.57 32.8072 121.598 32.6382L121.655 32.2422C121.683 31.9862 121.798 31.6152 121.683 31.3322C121.626 31.1332 121.399 30.9902 121.171 30.9362V30.9072C121.456 30.8502 121.654 30.7062 121.824 30.5362C122.024 30.3112 122.108 30.1692 122.222 29.9402L122.421 29.5442C122.505 29.3452 122.647 29.0322 122.932 28.9192C122.988 28.8902 123.075 28.8622 123.329 28.8332L123.442 28.0952C123.016 28.1522 122.59 28.1522 122.193 28.4372C121.852 28.6932 121.71 29.0332 121.568 29.3182L121.397 29.6292C121.255 29.9162 121.169 30.1412 120.886 30.3132C120.688 30.4832 120.46 30.4832 120.262 30.4832H119.267L120.035 28.2102H118.93V28.2052Z" fill="white"/>
<path fill-rule="evenodd" clip-rule="evenodd" d="M115.606 32.75C115.408 32.863 115.151 32.947 114.895 33.033C114.582 33.117 114.356 33.146 114.072 33.146C113.703 33.146 113.305 33.117 113.05 32.777C112.737 32.381 112.936 31.756 113.193 31.045C113.391 30.363 113.619 29.74 114.017 29.342C114.243 29.115 114.583 28.83 115.181 28.83C115.578 28.83 115.805 28.945 115.919 29.144C116.06 29.371 115.976 29.624 115.805 29.996L116.856 29.912C117.252 29.285 117.197 28.66 116.742 28.349C116.458 28.148 116.033 28.062 115.579 28.062C115.011 28.062 114.328 28.205 113.761 28.544C112.71 29.169 112.198 30.308 111.971 31.017C111.773 31.613 111.49 32.72 112.057 33.404C112.426 33.884 113.023 33.97 113.676 33.97C114.102 33.97 114.471 33.943 114.954 33.802C115.209 33.687 115.492 33.572 115.778 33.431L115.606 32.75Z" fill="white"/>
<path fill-rule="evenodd" clip-rule="evenodd" d="M110.664 25.7341C110.607 25.8771 110.522 26.0191 110.381 26.1321C110.183 26.3021 109.869 26.3901 109.671 26.3901C109.471 26.3901 109.188 26.3021 109.131 26.1321C109.045 26.0191 109.073 25.8761 109.131 25.7341H108.336C108.136 26.1601 108.165 26.5861 108.42 26.8161C108.676 27.0701 109.131 27.0971 109.415 27.0971C109.757 27.0971 110.183 27.0701 110.636 26.8161C111.062 26.5861 111.347 26.1601 111.459 25.7341H110.664Z" fill="white"/>
<path fill-rule="evenodd" clip-rule="evenodd" d="M111.518 28.2051H110.437L106.121 32.3811L107.54 28.2051H106.461L104.53 33.8851H105.637L109.926 29.6821L108.507 33.8851H109.614L111.518 28.2051Z" fill="white"/>
<path fill-rule="evenodd" clip-rule="evenodd" d="M104.813 28.2051H103.734L99.4179 32.3811L100.839 28.2051H99.7579L97.8269 33.8851H98.9069L103.196 29.6821L101.775 33.8851H102.883L104.813 28.2051Z" fill="white"/>
<path fill-rule="evenodd" clip-rule="evenodd" d="M96.6349 32.75C96.3799 32.863 96.1799 32.947 95.8969 33.033C95.5839 33.117 95.3569 33.146 95.0439 33.146C94.7039 33.146 94.2779 33.117 94.0499 32.777C93.7669 32.381 93.9369 31.756 94.1929 31.045C94.4199 30.363 94.6479 29.74 95.0449 29.342C95.2439 29.115 95.6129 28.83 96.1809 28.83C96.5779 28.83 96.8059 28.945 96.9479 29.144C97.0609 29.371 96.9769 29.624 96.8349 29.996L97.8569 29.912C98.2539 29.285 98.2259 28.66 97.7719 28.349C97.4879 28.148 97.0339 28.062 96.5789 28.062C96.0109 28.062 95.3289 28.205 94.7619 28.544C93.7109 29.169 93.2279 30.308 92.9719 31.017C92.7729 31.613 92.4889 32.72 93.0569 33.404C93.4269 33.884 94.0509 33.97 94.6759 33.97C95.1019 33.97 95.4999 33.943 95.9539 33.802C96.1809 33.687 96.4939 33.572 96.7489 33.431L96.6349 32.75Z" fill="white"/>
<path fill-rule="evenodd" clip-rule="evenodd" d="M91.04 32.75C90.785 32.863 90.558 32.947 90.302 33.033C89.989 33.117 89.762 33.146 89.45 33.146C89.109 33.146 88.683 33.117 88.456 32.777C88.143 32.381 88.342 31.756 88.598 31.045C88.796 30.363 89.024 29.74 89.45 29.342C89.649 29.115 89.99 28.83 90.586 28.83C90.955 28.83 91.21 28.945 91.324 29.144C91.438 29.371 91.381 29.624 91.21 29.996L92.262 29.912C92.659 29.285 92.602 28.66 92.177 28.349C91.892 28.148 91.438 28.062 90.984 28.062C90.416 28.062 89.734 28.205 89.166 28.544C88.115 29.169 87.632 30.308 87.376 31.017C87.178 31.613 86.894 32.72 87.462 33.404C87.831 33.884 88.456 33.97 89.081 33.97C89.507 33.97 89.904 33.943 90.359 33.802C90.587 33.687 90.899 33.572 91.154 33.431L91.04 32.75Z" fill="white"/>
<path fill-rule="evenodd" clip-rule="evenodd" d="M83.6851 29C83.8831 28.916 84.1391 28.83 84.4521 28.83C84.9061 28.83 85.1331 29.029 85.2191 29.199C85.4461 29.625 85.2471 30.252 85.1621 30.533L84.7931 31.529C84.7081 31.814 84.4801 32.437 83.9981 32.836C83.9131 32.922 83.8281 32.977 83.6861 33.063C83.4871 33.147 83.2591 33.233 82.9481 33.233C82.4641 33.233 82.2381 33.034 82.1531 32.837C81.9541 32.439 82.1531 31.816 82.2381 31.53L82.5781 30.534C82.6921 30.253 82.9191 29.626 83.4021 29.2C83.4851 29.145 83.5711 29.059 83.6851 29ZM84.7071 28.063C84.3381 28.063 83.9971 28.12 83.6851 28.206C83.2871 28.351 82.9471 28.546 82.6341 28.804C81.8391 29.427 81.4421 30.31 81.2141 31.046C80.9581 31.73 80.7311 32.609 81.1011 33.263C81.3561 33.689 81.8391 33.972 82.6911 33.972C83.0601 33.972 83.4011 33.945 83.6851 33.829C84.1111 33.716 84.4521 33.518 84.7641 33.263C85.5591 32.609 85.9571 31.73 86.2121 31.046C86.4401 30.31 86.6381 29.427 86.2691 28.804C86.0421 28.375 85.5591 28.063 84.7071 28.063Z" fill="white"/>
<path fill-rule="evenodd" clip-rule="evenodd" d="M79.1401 26.6152H79.8501C80.2201 26.6152 80.6451 26.7302 80.8151 26.9572C80.9291 27.0702 81.1281 27.3532 80.9291 27.9222C80.7301 28.5202 80.3611 28.8602 80.1911 28.9732C79.8221 29.2562 79.4521 29.3712 79.1401 29.3712C79.0561 29.4002 78.9701 29.4002 78.8851 29.4002H77.2661L78.2031 26.6152H79.1401ZM79.1401 30.3092C79.6511 30.2802 80.4181 30.1082 81.1001 29.5692C81.6391 29.2002 82.0941 28.5752 82.3211 27.9232C82.4621 27.4682 82.5761 26.7322 82.0661 26.2182C81.5551 25.7362 80.8161 25.6792 80.1341 25.6792H79.1401H77.3221L74.5391 33.8862H75.7611L76.9531 30.3372H78.7141C78.8281 30.3362 78.9701 30.3362 79.1401 30.3092Z" fill="white"/>
<path fill-rule="evenodd" clip-rule="evenodd" d="M199.5 28.2051H198.393L194.104 32.3811L195.524 28.2051H194.416L192.485 33.8851H193.593L197.881 29.6821L196.462 33.8851H197.569L199.5 28.2051Z" fill="white"/>
<path fill-rule="evenodd" clip-rule="evenodd" d="M11.377 36.6391L9.02 35.6171L18.79 34.4261C18.96 34.7091 19.131 34.9651 19.33 35.2211L11.377 36.6391ZM37.59 36.6391L39.947 35.5611L30.234 34.3971C30.149 34.7101 29.893 34.9651 29.723 35.2211L37.59 36.6391ZM36.171 36.8111L33.217 37.8051L29.014 36.5281L28.644 36.4151C28.786 36.3001 28.9 36.1861 29.014 36.0461C29.184 35.9031 29.326 35.7041 29.497 35.5621L36.171 36.8111ZM43.981 34.0571L41.283 35.3071L30.491 34.0571C30.576 33.8031 30.662 33.5471 30.747 33.2891L43.981 34.0571ZM44.946 33.6881L48.467 31.4441H29.383C29.383 32.2411 29.269 32.9231 29.014 33.5181C28.275 35.4201 26.43 36.3291 24.583 36.2991C22.766 36.2421 20.92 35.3071 20.096 33.5721C19.812 32.9471 19.642 32.2651 19.642 31.4431H0.5L3.994 33.6871L18.62 32.9211C18.903 33.9701 19.414 34.8801 20.096 35.5601C21.261 36.7831 22.936 37.4641 24.583 37.4641C26.202 37.4931 27.85 36.8981 29.014 35.5891C29.639 34.9071 30.121 34.0261 30.405 32.9761L44.946 33.6881ZM29.014 39.4791L29.383 40.1631L29.014 40.3351L28.02 40.7881L26.884 38.5441C26.175 38.8001 25.379 38.9421 24.583 38.9701C23.731 38.9991 22.851 38.8841 22.084 38.6281L21.118 40.7881C20.805 40.8151 20.379 40.7881 20.096 40.5911C19.954 40.5051 19.812 40.3621 19.756 40.1631L20.096 39.5951L20.92 38.1161C20.664 37.9481 20.437 37.8351 20.21 37.6061L20.892 36.7841C22.056 37.4951 23.334 37.8911 24.583 37.8911C25.833 37.9201 27.082 37.5201 28.247 36.6981L29.015 36.9251L29.327 37.0401C29.214 37.1241 29.128 37.2101 29.015 37.2961C28.787 37.5211 28.589 37.7491 28.22 37.9481L29.014 39.4791ZM29.014 27.8651C29.752 28.7461 30.291 29.8261 30.576 31.0741H29.355C29.27 30.7031 29.157 30.3361 29.015 29.9961C28.191 27.8381 26.515 26.3031 24.584 25.0231C24.329 24.8821 24.102 24.7121 23.846 24.5701C24.102 24.6561 24.329 24.7421 24.584 24.8281C26.344 25.5351 27.906 26.5021 29.014 27.8651ZM25.719 35.8731C26.032 35.8161 26.514 35.6461 26.884 35.3631L24.952 31.5291L26.969 30.5621L25.265 29.0851L24.583 29.4001L21.658 30.7321L22.51 32.6641L23.902 32.0411L25.719 35.8731ZM20.437 36.4141C20.323 36.3281 20.209 36.2151 20.096 36.1291C19.869 35.9321 19.67 35.7331 19.528 35.5331L12.859 36.7931L15.698 37.7461L20.437 36.4141ZM18.62 34.0571C18.506 33.8031 18.421 33.5471 18.335 33.2891L4.987 34.0571L7.685 35.3641L18.62 34.0571Z" fill="white"/>
</svg>
