<svg width="82" height="63" viewBox="0 0 82 63" fill="none" xmlns="http://www.w3.org/2000/svg">
<path fill-rule="evenodd" clip-rule="evenodd" d="M7.2135 54.0754H4.76591V62.8497H2.74065V54.0754H0.356567V52.5038H7.2135V54.0754ZM22.1596 58.2806H18.9744V61.2853H22.7901V62.8497H16.9567V52.5038H22.7752V54.0754H18.9744V56.7187H22.1596V58.2806ZM36.0676 56.1635H36.1117L37.5921 52.5038H39.9322L37.3429 57.6354L40.1058 62.8497H37.6653L36.1338 59.1124H36.0898L34.5653 62.8497H32.218L34.8731 57.6354L32.2766 52.5038H34.6094L36.0676 56.1635ZM57.1355 62.8497H55.1227V58.5377H51.7663V62.8497H49.7486V52.5038H51.7663V56.9734H55.1227V52.5038H57.1355V62.8497ZM74.8933 59.1269C74.8933 60.3444 74.5487 61.2928 73.8575 61.9766C73.1661 62.658 72.2451 62.9976 71.0946 63C69.9441 62.9978 69.0256 62.658 68.3392 61.9766C67.6526 61.2928 67.3084 60.3444 67.3084 59.1269V56.241C67.3084 55.0284 67.6503 54.0778 68.3344 53.389C69.0207 52.7003 69.9368 52.3559 71.0873 52.3559C72.2378 52.3559 73.1588 52.7003 73.8527 53.389C74.5463 54.0778 74.8933 55.0284 74.8933 56.241V59.1269ZM72.8828 56.2217C72.8828 55.4674 72.7289 54.8999 72.4211 54.5142C72.1133 54.1312 71.6686 53.9395 71.0873 53.9395C70.5012 53.9395 70.0589 54.1312 69.7633 54.5118C69.4679 54.8927 69.3188 55.4626 69.3188 56.2217V59.1269C69.3188 59.8933 69.4679 60.4707 69.7657 60.8537C70.0638 61.237 70.5084 61.4285 71.0946 61.4285C71.681 61.4285 72.1255 61.237 72.4285 60.8537C72.7313 60.4707 72.8828 59.8933 72.8828 59.1269V56.2217Z" fill="white"/>
<path fill-rule="evenodd" clip-rule="evenodd" d="M0 1.53763H10.5544V4.06454L0 16.7531V1.53763Z" fill="white"/>
<path fill-rule="evenodd" clip-rule="evenodd" d="M0 21.807L10.5544 9.10776V42.1085H0V21.807Z" fill="white"/>
<path fill-rule="evenodd" clip-rule="evenodd" d="M45.7879 25.9039L45.6211 26.3339L45.4432 26.7426L45.243 27.162L45.0317 27.5598L44.8092 27.9469L44.5646 28.3341L44.3088 28.7104L44.0307 29.0653L43.7527 29.4201L43.4524 29.7642L43.1409 30.0975L42.8184 30.4093L42.4737 30.7212L42.1289 31.0115L41.773 31.3019L41.3949 31.5707L41.0167 31.8287L40.6275 32.0653L40.216 32.2911L39.8045 32.5061L39.3819 32.7104L38.9593 32.8933L38.5144 33.0546L38.0695 33.2051L37.6135 33.3449L37.1576 33.4631L36.6904 33.5599L36.2121 33.646L35.734 33.7105L35.2446 33.7535L34.7552 33.7858L34.2547 33.7965L33.6319 33.7858L33.0202 33.732L32.4197 33.6568L31.8191 33.5492L31.2297 33.4201L30.6625 33.2589L30.0953 33.0761L29.5391 32.861L29.0053 32.6244L28.4826 32.3556L27.971 32.0761L27.4817 31.7642L27.0034 31.4308L26.5363 31.0761L26.0915 30.7104L25.6688 30.3126L25.2685 29.904L24.8792 29.4739L24.5233 29.0222L24.1785 28.5598L23.8671 28.0867L23.5669 27.5921L23.2999 27.076L23.0552 26.5598L22.8328 26.0222L22.6437 25.4738L22.4769 24.9147L22.3323 24.3446L22.2323 23.764L22.1544 23.1834L22.0987 22.5812L22.0877 21.9791L22.0987 21.3661L22.1544 20.7747L22.2323 20.1833L22.3323 19.5919L22.4769 19.022L22.6437 18.4628L22.8328 17.9144L23.0552 17.3768L23.2999 16.8499L23.5669 16.3337L23.8671 15.8391L24.1785 15.3552L24.5233 14.8928L24.8792 14.4412L25.2685 14.0111L25.6688 13.6024L26.0915 13.2046L26.5363 12.839L27.0034 12.4842L27.4817 12.1509L27.971 11.839L28.4826 11.5594L29.0053 11.2905L29.5391 11.0541L30.0953 10.839L30.6625 10.6562L31.2297 10.4948L31.8191 10.355L32.4197 10.2583L33.0202 10.1831L33.6319 10.1292L34.2547 10.1185L34.733 10.1292L35.2001 10.1507L35.6672 10.1937L36.1232 10.2583L36.5793 10.3336L37.0352 10.4304L37.4801 10.5486L37.9138 10.6669L38.3365 10.8174L38.7702 10.968L39.1817 11.14L39.5821 11.3336L39.9824 11.5272L40.3828 11.7422L40.7609 11.968L41.1391 12.2046L41.4949 12.4627L41.8509 12.7315L42.1956 13.0004L42.5293 13.2907L42.8519 13.5917L43.1632 13.9036L43.4635 14.2261L43.7527 14.5595L44.0307 14.8928L44.2976 15.2477L44.5534 15.6026L44.787 15.9788L45.0094 16.3552L45.2319 16.7316L45.4209 17.1294L45.61 17.5273H56.4759L56.2534 16.6026L55.9976 15.6885L55.6973 14.7852L55.3637 13.9036L54.9856 13.0433L54.574 12.2046L54.1292 11.3766L53.6509 10.5702L53.1283 9.7959L52.5833 9.03249L52.0049 8.30128L51.3933 7.5916L50.7593 6.9034L50.092 6.24746L49.3913 5.62377L48.6685 5.02162L47.9233 4.44091L47.1559 3.90328L46.3551 3.38718L45.5322 2.91406L44.698 2.46239L43.8306 2.05373L42.9519 1.67738L42.0399 1.33336L41.1279 1.03222L40.1826 0.763436L39.2373 0.537634L38.2697 0.343991L37.2798 0.193486L36.2789 0.0859189L35.278 0.0214685L34.2547 0L33.087 0.0322252L31.9414 0.118279L30.807 0.258027L29.6948 0.451581L28.6049 0.688139L27.5262 0.989215L26.4696 1.33336L25.4464 1.7312L24.4454 2.1721L23.4667 2.65597L22.5103 3.18285L21.5984 3.75277L20.7085 4.36564L19.8521 5.02162L19.0292 5.70983L18.2395 6.44097L17.4833 7.20438L16.7714 8.00011L16.1042 8.82816L15.4703 9.68833L14.8808 10.5809L14.3247 11.5056L13.8243 12.4519L13.3794 13.4197L12.9679 14.4197L12.612 15.4412L12.3005 16.4843L12.0559 17.5489L11.8558 18.6349L11.7111 19.7316L11.6222 20.85L11.5887 21.9791L11.6222 23.1081L11.7111 24.2156L11.8558 25.3125L12.0559 26.3878L12.3005 27.4415L12.612 28.4846L12.9679 29.5061L13.3794 30.4954L13.8243 31.4631L14.3247 32.4094L14.8808 33.3341L15.4703 34.2267L16.1042 35.0869L16.7714 35.9148L17.4833 36.7105L18.2395 37.4741L19.0292 38.1945L19.8521 38.8934L20.7085 39.5386L21.5984 40.1515L22.5103 40.7322L23.4667 41.2591L24.4454 41.743L25.4464 42.1838L26.4696 42.5817L27.5262 42.9258L28.6049 43.2162L29.6948 43.4634L30.807 43.657L31.9414 43.7968L33.087 43.8828L34.2547 43.9151L35.2891 43.8936L36.3234 43.829L37.3354 43.7108L38.3253 43.5602L39.3151 43.3667L40.2827 43.1301L41.2281 42.8505L42.1623 42.5387L43.0854 42.1838L43.9751 41.7968L44.8426 41.3666L45.699 40.915L46.522 40.4203L47.3338 39.8934L48.1123 39.3343L48.8687 38.7429L49.5915 38.1192L50.2923 37.4741L50.9595 36.7966L51.6046 36.0869L52.2162 35.3664L52.7946 34.6029L53.3396 33.8288L53.8511 33.0223L54.3293 32.2051L54.7743 31.3556L55.1746 30.4954L55.5417 29.6137L55.8753 28.7104L56.1645 27.7857L56.4091 26.8501L56.6205 25.9039H45.7879Z" fill="white"/>
<path fill-rule="evenodd" clip-rule="evenodd" d="M57.043 1.53763H67.5419V32.3233H82L73.9925 42.1516H57.043V1.53763Z" fill="white"/>
</svg>
