<svg id="Layer_1" data-name="Layer 1" xmlns="http://www.w3.org/2000/svg" viewBox="0 0 804.26 552.81"><defs><style>.cls-1{fill:none;}.cls-2{fill:#ff4f12;}.cls-3{opacity:0.81;}.cls-4{fill:#70f;}.cls-5{fill:#101828;}</style></defs><title>Artboard 10</title><path class="cls-1" d="M368.08,276l-.05.05c-17.6,17.49-29.23,29.05-37.8,37.59-7.61,7.59-12.81,12.8-17.62,17.69-6.07,6.05-10.12,10.08-10.13,10.1l0,0h0a18.22,18.22,0,0,0-4.78,12.32,17.09,17.09,0,0,0,10.83,15.88h0l.67.27a4.57,4.57,0,0,0,.73.2,28,28,0,0,0,8.23,1.29H463.24L368.08,276Z"/><path class="cls-2" d="M308.51,369.68h0l.67.27a4.89,4.89,0,0,0,.73.2,28,28,0,0,0,8.23,1.29H463.24L368.08,276h0l-.05.05c-17.6,17.49-29.23,29.05-37.8,37.59-7.61,7.59-12.81,12.8-17.62,17.69-6.07,6.05-10.12,10.08-10.13,10.1l0,0h0a18.22,18.22,0,0,0-4.78,12.32A17.09,17.09,0,0,0,308.51,369.68Z"/><path class="cls-4" d="M297.68,353.8a18.22,18.22,0,0,1,4.78-12.32h0l0,0s4.06-4,10.13-10.1c4.81-4.89,10-10.1,17.62-17.69,8.57-8.54,20.2-20.1,37.8-37.59l.05-.05h0l17.15-17,.34-.34c28.49-28.32,69-68.66,128.5-127.91L383.42,0l-74,74.06c-22.11,22.11-19.12,36.58-19.12,66.27V343.52a27.89,27.89,0,0,0,18.18,26.16h0A17.09,17.09,0,0,1,297.68,353.8Z"/><polygon class="cls-5" points="629.96 478.3 608.19 478.3 582.19 504.6 582.19 478.3 563.78 478.3 563.78 550.76 582.19 550.76 582.19 520.81 608.63 550.76 630.84 550.76 596.65 511.9 629.96 478.3"/><path class="cls-5" d="M46.45,448.5H0V550.76H19.28V515.12H46.45c23.08,0,38.28-11.84,38.28-33.31S69.53,448.5,46.45,448.5Zm-.58,49.38H19.28V465.74H45.87c13.44,0,19.57,6.43,19.57,16.07S59.31,497.88,45.87,497.88Z"/><path class="cls-5" d="M128.25,476.26c-19.86,0-39.59,12.85-39.59,38.27s19.73,38.27,39.59,38.27,39.59-12.85,39.59-38.27S148.12,476.26,128.25,476.26Zm0,59.31c-10.81,0-20.89-7.74-20.89-21s10.08-21,20.89-21,20.89,7.74,20.89,21S139.06,535.57,128.25,535.57Z"/><path class="cls-5" d="M214.83,535.57c-11.1,0-19.28-8-19.28-21,0-12.85,8.47-21,19.28-21,6.58,0,12.27,3.06,16.8,9.93l15.78-9.06c-5.26-11.25-16.66-18.11-32.43-18.11-20.6,0-38.13,15.19-38.13,38.27S193.5,552.8,215,552.8c15.48,0,25.85-7,33.16-19.42L233,525.05C228.56,531.19,223.89,535.57,214.83,535.57Z"/><path class="cls-5" d="M410.81,519.35c-.87,11.11-3.07,13.59-6.87,13.59a18.74,18.74,0,0,1-5.59-.75l.09,18.75a24.57,24.57,0,0,0,6.53.7c15.63,0,21.47-10.08,22.93-31.56l1.76-25.27H450.4v55.8h18.41V478.3H413.88Z"/><path class="cls-5" d="M358.6,476.26c-21,0-38.12,15.34-38.12,38.27s17.09,38.27,37.25,38.27c15.92,0,26-6,33.3-18.4l-14.61-7.3c-4.52,5.69-8.61,9.93-18.4,9.93-10.81,0-18.7-7-19.87-18.12H394v-6.42C394,491.31,379.35,476.26,358.6,476.26Zm-20.16,28.63c2.63-8.18,9.94-14.61,19.58-14.61,10.22,0,17.09,5.55,18.84,14.61Z"/><path class="cls-5" d="M517.24,476.26c-21,0-38.13,15.34-38.13,38.27s17.09,38.27,37.25,38.27c15.92,0,26-6,33.31-18.4l-14.61-7.3c-4.53,5.69-8.62,9.93-18.41,9.93-10.81,0-18.7-7-19.86-18.12h55.8v-6.42C552.59,491.31,538,476.26,517.24,476.26Zm-20.16,28.63c2.63-8.18,9.93-14.61,19.57-14.61,10.23,0,17.09,5.55,18.85,14.61Z"/><polygon class="cls-5" points="253.86 494.37 275.48 494.37 275.48 550.76 293.89 550.76 293.89 494.37 315.51 494.37 315.51 478.3 253.86 478.3 253.86 494.37"/><path class="cls-5" d="M667.38,476.26c-19.87,0-39.59,12.85-39.59,38.27s19.72,38.28,39.59,38.28S707,540,707,514.53,687.24,476.26,667.38,476.26Zm0,59.31c-10.81,0-20.89-7.74-20.89-21s10.08-21,20.89-21,20.89,7.74,20.89,21S678.19,535.57,667.38,535.57Z"/><polygon class="cls-5" points="780.2 478.29 760.23 529.03 740.25 478.29 716.19 478.29 716.19 550.62 733.69 550.62 733.69 504.83 753.08 550.62 767.37 550.62 786.76 504.83 786.76 550.62 804.26 550.62 804.26 478.29 780.2 478.29"/></svg>