<svg xmlns="http://www.w3.org/2000/svg" viewBox="0 0 82 43.92">
  <path d="M0 1.54h10.55v2.52L0 16.75zM0 21.81l10.55-12.7v33H0zM45.79 25.9l-.17.43-.18.41-.2.42-.21.4-.22.39-.25.38-.25.38-.28.36-.28.35-.3.34-.31.34-.32.31-.35.31-.34.29-.36.29-.38.27-.37.26-.39.24-.41.22-.42.22-.42.2-.42.18-.45.16-.44.16-.46.13-.45.12-.47.1-.48.09-.48.06H33.63l-.63.02-.6-.07-.6-.11-.59-.13-.57-.16-.56-.18-.56-.22-.52-.24-.53-.26-.47-.28-.49-.32-.51-.33-.46-.35-.45-.37-.42-.4-.4-.41-.39-.43-.36-.47-.34-.46-.31-.47-.3-.5-.27-.51-.24-.52-.23-.54-.19-.55-.16-.56-.15-.57-.1-.58-.08-.58v-2.39l.08-.59.1-.59.15-.57.16-.56.19-.55.23-.53.24-.53.27-.52.3-.49.31-.48.34-.47.36-.45.39-.43.4-.41.42-.4.45-.36.46-.36.48-.33.49-.31.51-.28.53-.27.53-.24.56-.21.56-.18.57-.17.59-.14.6-.09.6-.08H35.67l.45.07.46.07.46.1.44.12.43.12.43.15.43.15.41.17.4.19.4.2.4.21.38.23.38.23.35.26.36.27.35.27.33.29.32.3.31.31.3.33.29.33.28.33.27.36.25.35.24.38.22.38.22.37.19.4.19.4h10.87l-.23-.93-.25-.9-.3-.9-.34-.89L55 13l-.42-.84-.44-.82-.48-.81-.52-.77-.56-.76-.58-.7-.61-.71-.63-.69-.67-.65-.7-.63-.72-.62-.75-.58-.76-.54-.8-.51-.83-.48-.83-.45-.87-.41-.83-.35-1-.35-.87-.33-1-.27-.89-.19-1-.2-1-.15-1-.1-1-.07h-1L33.09 0l-1.15.12-1.13.14-1.12.19-1.09.24-1.07.31-1.06.34-1 .4-1 .44-1 .49-1 .52-.91.57-.89.62-.82.62-.85.71-.79.73-.76.76-.71.8-.67.83-.63.86-.59.89-.56.93-.5.94-.44 1-.41 1-.36 1-.31 1-.24 1.07-.2 1.08-.15 1.1-.09 1.12v2.26l.09 1.11.15 1.09.2 1.08.24 1.05.31 1 .36 1 .41 1 .44 1 .5.95.56.92.59.9.63.86.67.82.71.8.76.76.79.72.82.7.86.65.89.61.91.58 1 .53 1 .48 1 .44 1 .4 1.06.35 1.07.29 1.09.24 1.12.2 1.13.14 1.15.08h2.16l1-.06 1-.12 1-.15 1-.19 1-.24.95-.28.93-.31.93-.36.93-.32.86-.43.86-.45.82-.5.81-.53.78-.56.76-.59.72-.62.7-.65.69-.67.64-.71.62-.72.57-.77.55-.77.51-.81.48-.81.44-.85.4-.86.37-.89.34-.9.28-.92.25-.94.21-1zM57 1.54h10.5v30.78H82l-8 9.83H57z" fill="#FB0D1B"/>
</svg>