
<svg id="Layer_1" data-name="Layer 1" xmlns="http://www.w3.org/2000/svg" viewBox="0 0 80 80">
  
   
    <path class="cls-3" d="M70.88 16.57H9.13a2 2 0 0 0-2 2v36.5a2 2 0 0 0 2 2h61.75a2 2 0 0 0 2-2V18.55a2 2 0 0 0-2-1.98zm.26 38.48a.27.27 0 0 1-.26.27H9.13a.27.27 0 0 1-.27-.27v-36.5a.27.27 0 0 1 .27-.27h61.75a.27.27 0 0 1 .26.27z"/>
    <path class="cls-3" d="M78.72 58.31h-2v-40.7a4.89 4.89 0 0 0-4.89-4.89H8.19a4.89 4.89 0 0 0-4.89 4.89v40.7h-2A1.28 1.28 0 0 0 0 59.6v3.53a4.15 4.15 0 0 0 4.16 4.15h71.68A4.15 4.15 0 0 0 80 63.13V59.6a1.28 1.28 0 0 0-1.28-1.29zM5.86 17.61a2.33 2.33 0 0 1 2.33-2.32h63.62a2.33 2.33 0 0 1 2.33 2.32v40.7H5.86zm37.91 43.27v.67a.55.55 0 0 1-.55.55h-6.44a.55.55 0 0 1-.55-.55v-.67h7.54zm33.66 2.25a1.59 1.59 0 0 1-1.59 1.58H4.16a1.59 1.59 0 0 1-1.59-1.58v-2.25h32v.67a2.26 2.26 0 0 0 2.26 2.26h6.44a2.26 2.26 0 0 0 2.26-2.26v-.67h32z"/>
  
</svg>