<svg xmlns="http://www.w3.org/2000/svg" viewBox="0 0 63 60">
  <path d="M21.3 52.5h-1.8A4.5 4.5 0 0015 57v1.5a1.5 1.5 0 001.5 1.5h30a1.5 1.5 0 001.5-1.5V57a4.5 4.5 0 00-4.5-4.5h-1.9l-.7-3h17.6A4.5 4.5 0 0063 45V4.5A4.5 4.5 0 0058.5 0h-54A4.5 4.5 0 000 4.5V45a4.5 4.5 0 004.5 4.5h17.6zm-1.8 3h24A1.5 1.5 0 0145 57H18a1.5 1.5 0 011.5-1.5zm19-3h-14l.7-3h12.6zM4.6 3h54A1.5 1.5 0 0160 4.5v36H3v-36A1.5 1.5 0 014.5 3zM3 45v-1.5h28.5A1.5 1.5 0 0030 45a1.5 1.5 0 101.5-1.5H60V45a1.5 1.5 0 01-1.5 1.5h-54A1.5 1.5 0 013 45z"/>
</svg>